<svg xmlns="http://www.w3.org/2000/svg" id="Post-pana" width="903.92" height="605.918" viewBox="0 0 903.92 605.918"><g id="background-complete--inject-56" transform="translate(0 3.116)"><rect id="Rectangle_850" data-name="Rectangle 850" width="86.639" height="4.21" transform="translate(250.181 369.065) rotate(180)" fill="#ebebeb"></rect><path id="Path_7869" data-name="Path 7869" d="M273.683,326.735l16.246-60.9H222.286l-14.726,60.9Z" transform="translate(-10.068 42.344)" fill="#ebebeb"></path><path id="Path_7870" data-name="Path 7870" d="M210.23,321.169h60.439l14.057-53.479H223.984Z" transform="translate(-8.681 43.306)" fill="#e0e0e0"></path><rect id="Rectangle_851" data-name="Rectangle 851" width="4.377" height="208.901" transform="translate(112.418 380.052)" fill="#f5f5f5"></rect><rect id="Rectangle_852" data-name="Rectangle 852" width="4.377" height="208.308" transform="translate(116.795 380.645)" fill="#ebebeb"></rect><rect id="Rectangle_853" data-name="Rectangle 853" width="4.377" height="208.901" transform="translate(381.986 380.052)" fill="#ebebeb"></rect><rect id="Rectangle_854" data-name="Rectangle 854" width="4.377" height="208.308" transform="translate(386.363 380.645)" fill="#e0e0e0"></rect><rect id="Rectangle_855" data-name="Rectangle 855" width="332.363" height="17.127" transform="translate(93.528 367.91)" fill="#e0e0e0"></rect><rect id="Rectangle_856" data-name="Rectangle 856" width="146.319" height="28.358" transform="translate(237.871 385.052)" fill="#ebebeb"></rect><path id="Path_7871" data-name="Path 7871" d="M288.795,325.577a3.252,3.252,0,1,1-.952-2.315,3.267,3.267,0,0,1,.952,2.315Z" transform="translate(28.755 71.693)" fill="#e0e0e0"></path><path id="Path_7872" data-name="Path 7872" d="M225,368.615s-.729,8.358-3.191,9.346-38.6,11.793-74.254,8.358-54.832-7.6-56.306-12.8v-4.909S164.03,362.461,225,368.615Z" transform="translate(-70.517 94.338)" fill="#ebebeb"></path><path id="Path_7873" data-name="Path 7873" d="M145.743,380.208v4.483H123.19V378.81Z" transform="translate(-53.917 101.058)" fill="#e0e0e0"></path><rect id="Rectangle_857" data-name="Rectangle 857" width="5.729" height="32.917" transform="translate(77.935 485.749)" fill="#e0e0e0"></rect><path id="Path_7874" data-name="Path 7874" d="M140.1,404.35c.608.805,0,54.254,0,54.254H126.07V404.35Z" transform="translate(-52.42 114.331)" fill="#e0e0e0"></path><rect id="Rectangle_858" data-name="Rectangle 858" width="136.35" height="5.684" transform="translate(17.663 571.568)" fill="#e0e0e0"></rect><path id="Path_7875" data-name="Path 7875" d="M89.232,448.989a5.517,5.517,0,1,0,5.486-6.079,5.82,5.82,0,0,0-5.486,6.079Z" transform="translate(-71.569 134.372)" fill="#e0e0e0"></path><path id="Path_7876" data-name="Path 7876" d="M172.1,448.989a6.079,6.079,0,1,0,6.079-6.079A6.079,6.079,0,0,0,172.1,448.989Z" transform="translate(-28.498 134.372)" fill="#e0e0e0"></path><path id="Path_7877" data-name="Path 7877" d="M122.53,448.989a6.079,6.079,0,1,0,6.079-6.079A6.079,6.079,0,0,0,122.53,448.989Z" transform="translate(-54.26 134.372)" fill="#e0e0e0"></path><path id="Path_7878" data-name="Path 7878" d="M144.343,386.271s-18.48-6.5-19.285-19.361H110.62s5.137,16.443,23.373,18.586,1-.091,1-.091Z" transform="translate(-60.45 94.873)" fill="#e0e0e0"></path><path id="Path_7879" data-name="Path 7879" d="M204.63,317.325h0a33.145,33.145,0,0,1-33.16,33.145H110.756a33.145,33.145,0,0,1-33.1-34.954h0a33.145,33.145,0,0,1,33.1-31.306h60.789A33.145,33.145,0,0,1,204.63,317.325Z" transform="translate(-77.607 51.892)" fill="#ebebeb"></path><path id="Path_7880" data-name="Path 7880" d="M125.578,317v79.983H111.14l-1.52-79.831a7.963,7.963,0,0,1,7.6-8.1h0A7.963,7.963,0,0,1,125.578,317Z" transform="translate(-60.97 64.798)" fill="#e0e0e0"></path><path id="Path_7881" data-name="Path 7881" d="M583.28,369.81v38.3H701.028v-38.3Z" transform="translate(185.202 96.38)" fill="#f5f5f5"></path><path id="Path_7882" data-name="Path 7882" d="M580.03,362.77v10.7H706.836v-10.7H580.03Z" transform="translate(183.513 92.721)" fill="#e0e0e0"></path><path id="Path_7883" data-name="Path 7883" d="M622.6,411.766h59.284v-38.3H686v-10.7H620.12v9.711Z" transform="translate(204.349 92.721)" fill="#e0e0e0"></path><rect id="Rectangle_859" data-name="Rectangle 859" width="23.875" height="5.76" transform="translate(784.956 472.375)" fill="#e0e0e0"></rect><rect id="Rectangle_860" data-name="Rectangle 860" width="30.668" height="12.173" transform="translate(781.871 485.339)" fill="#fff"></rect><path id="Path_7884" data-name="Path 7884" d="M736.4,628.505l-2.477-524.4H723.77V207.451h-26.23l-.486-103.265H686.9V207.527H596.691l-.5-103.265H586.037V207.6H559.9l-.486-103.265H549.26V628.505h12.629l-.35-70.378h24.5v70.378h12.629l-.334-70.378H686.9v70.378H699.53l-.334-70.378H723.77v70.378ZM573.18,488.63l-9.118-38.859h18.617Zm12.9-36.473v91.822L575.1,496.867Zm0-133.462L575.1,271.583l10.988-44.725Zm-1.96,8.434H561.4l11.626-47.309ZM573.18,263.362l-10.395-44.528h21.276Zm-2.021,8.206-10.638,43.586-.426-91.32ZM561.023,453.752l10.061,43.1L561.418,536.2Zm12.006,51.4,9.711,41.58H562.816Zm-11.641-66.868-.091-.365-.319.076-.471-99.451h25.531v99.739ZM597.3,338.542h89.664v99.739H597.77Zm112.748-58.768L721.1,327.084H698.421ZM698.041,312.6l-.41-86.031,10.5,44.969Zm25.729,9.118-11.7-50.151,11.7-47.613Zm0,5.228v.167h-.714Zm0,127.93v86.214l-10.319-44.224ZM711.475,488.63l-9.118-38.859h18.616Zm-1.368-225.284-10.395-44.513h21.276Zm13.677,75.226v99.709h-24l-.091-.365-1.064.258-.471-99.633ZM709.53,496.852l-10.41,42.324-.426-88.737Zm1.945,8.3,9.711,41.58H701.217ZM686.9,218.834v108.28H597.238l-.517-108.28Zm-87,327.834h-1.611l-.456-96.9H686.9v96.9Z" transform="translate(167.521 -41.71)" fill="#e0e0e0"></path><rect id="Rectangle_861" data-name="Rectangle 861" width="16.778" height="78.159" transform="translate(829.788 207.685)" fill="#e0e0e0"></rect><path id="Path_7885" data-name="Path 7885" d="M633.826,239.948a3.313,3.313,0,1,1-.97-2.358,3.328,3.328,0,0,1,.97,2.358Z" transform="translate(208.013 27.158)" fill="#fafafa"></path><rect id="Rectangle_862" data-name="Rectangle 862" width="5.137" height="31.945" transform="translate(835.806 228.399)" fill="#fafafa"></rect><rect id="Rectangle_863" data-name="Rectangle 863" width="16.778" height="78.159" transform="translate(812.751 207.685)" fill="#ebebeb"></rect><path id="Path_7886" data-name="Path 7886" d="M622.616,239.948a3.313,3.313,0,1,1-.97-2.358A3.328,3.328,0,0,1,622.616,239.948Z" transform="translate(202.187 27.158)" fill="#fafafa"></path><rect id="Rectangle_864" data-name="Rectangle 864" width="5.137" height="31.945" transform="translate(818.77 228.399)" fill="#fafafa"></rect><rect id="Rectangle_865" data-name="Rectangle 865" width="16.778" height="78.159" transform="translate(796.536 207.685)" fill="#f5f5f5"></rect><path id="Path_7887" data-name="Path 7887" d="M611.936,239.948a3.313,3.313,0,1,1-.965-2.352A3.328,3.328,0,0,1,611.936,239.948Z" transform="translate(196.636 27.158)" fill="#e0e0e0"></path><rect id="Rectangle_866" data-name="Rectangle 866" width="5.137" height="31.945" transform="translate(802.539 228.399)" fill="#e0e0e0"></rect><path id="Path_7888" data-name="Path 7888" d="M590.642,274.932l20.152-68.767-6.945-3.055L583.18,272.424Z" transform="translate(185.15 9.742)" fill="#f5f5f5"></path><path id="Path_7889" data-name="Path 7889" d="M568.44,328.069V316.23h83.6l.258,11.839Z" transform="translate(177.489 68.533)" fill="#f5f5f5"></path><path id="Path_7890" data-name="Path 7890" d="M650.875,317.5s-74.132.547-78.934,1.672c-1.033.243-2.082,4.8,0,5.213s78.934,1.049,78.934,1.049Z" transform="translate(178.685 69.193)" fill="#fff"></path><path id="Path_7891" data-name="Path 7891" d="M574.83,319.969V308.13h66.229l.2,11.839Z" transform="translate(180.81 64.324)" fill="#ebebeb"></path><path id="Path_7892" data-name="Path 7892" d="M640.143,309.41s-58.737.532-62.537,1.672c-.821.243-1.657,4.787,0,5.213s62.537,1.033,62.537,1.033Z" transform="translate(181.757 64.989)" fill="#fafafa"></path><path id="Path_7893" data-name="Path 7893" d="M574.64,312.279V300.44h66.214l.213,11.839Z" transform="translate(180.712 60.327)" fill="#e0e0e0"></path><path id="Path_7894" data-name="Path 7894" d="M639.938,301.71s-58.722.547-62.521,1.672c-.821.243-1.656,4.8,0,5.213s62.521,1.049,62.521,1.049Z" transform="translate(181.659 60.987)" fill="#fafafa"></path><rect id="Rectangle_867" data-name="Rectangle 867" width="16.778" height="78.159" transform="translate(837.31 89.01)" fill="#f5f5f5"></rect><path id="Path_7895" data-name="Path 7895" d="M638.776,161.858a3.328,3.328,0,1,1-3.328-3.328,3.328,3.328,0,0,1,3.328,3.328Z" transform="translate(210.585 -13.427)" fill="#e0e0e0"></path><rect id="Rectangle_868" data-name="Rectangle 868" width="5.137" height="31.945" transform="translate(843.328 109.724)" fill="#e0e0e0"></rect><rect id="Rectangle_869" data-name="Rectangle 869" width="16.763" height="78.159" transform="translate(820.289 89.01)" fill="#ebebeb"></rect><path id="Path_7896" data-name="Path 7896" d="M627.566,161.858a3.328,3.328,0,1,1-3.313-3.328,3.328,3.328,0,0,1,3.313,3.328Z" transform="translate(204.759 -13.427)" fill="#fafafa"></path><rect id="Rectangle_870" data-name="Rectangle 870" width="5.121" height="31.945" transform="translate(826.292 109.724)" fill="#fafafa"></rect><rect id="Rectangle_871" data-name="Rectangle 871" width="16.778" height="78.159" transform="translate(804.059 89.01)" fill="#e0e0e0"></rect><path id="Path_7897" data-name="Path 7897" d="M616.886,161.858a3.313,3.313,0,1,1-.965-2.352A3.328,3.328,0,0,1,616.886,161.858Z" transform="translate(199.208 -13.427)" fill="#fafafa"></path><rect id="Rectangle_872" data-name="Rectangle 872" width="5.137" height="31.945" transform="translate(810.077 109.724)" fill="#fafafa"></rect><rect id="Rectangle_873" data-name="Rectangle 873" width="182.215" height="119.8" transform="translate(83.71 237.092) rotate(-90)" fill="#e0e0e0"></rect><rect id="Rectangle_874" data-name="Rectangle 874" width="169.434" height="109.542" transform="translate(88.604 230.755) rotate(-90)" fill="#fafafa"></rect><rect id="Rectangle_875" data-name="Rectangle 875" width="55.272" height="30.136" transform="translate(128.542 173.659) rotate(-90)" fill="#e0e0e0"></rect><rect id="Rectangle_876" data-name="Rectangle 876" width="80.53" height="52.947" transform="translate(263.737 80.53) rotate(-90)" fill="#e0e0e0"></rect><rect id="Rectangle_877" data-name="Rectangle 877" width="74.892" height="48.418" transform="translate(265.91 77.719) rotate(-90)" fill="#fafafa"></rect><rect id="Rectangle_878" data-name="Rectangle 878" width="24.437" height="13.328" transform="translate(283.538 52.506) rotate(-90)" fill="#e0e0e0"></rect></g><g id="Floor--inject-56" transform="translate(67.069 591.476)"><path id="Path_7898" data-name="Path 7898" d="M947.937,450.6c0,.213-184.965.4-413.076.4s-413.121-.182-413.121-.4,184.935-.4,413.121-.4S947.937,450.367,947.937,450.6Z" transform="translate(-121.74 -450.2)" fill="#263238"></path></g><g id="Device--inject-56" transform="translate(391.165 0)"><path id="Path_7899" data-name="Path 7899" d="M560.649,607.34l-185.406-.851A40.394,40.394,0,0,1,335,565.928l1.96-464.777A40.379,40.379,0,0,1,377.552,61l185.406.866a40.379,40.379,0,0,1,40.2,40.546L601.21,567.068a40.364,40.364,0,0,1-40.561,40.273Z" transform="translate(-335 -61)" fill="#455a64"></path><path id="Path_7900" data-name="Path 7900" d="M558.5,72.319,522.554,72.2a8.936,8.936,0,0,0-8.769,9.118v6.52a8.936,8.936,0,0,1-8.769,9.118l-70.09-.441a8.936,8.936,0,0,1-8.693-9.118v-6.52a8.936,8.936,0,0,0-8.693-9.118H404.912l-31.458-.137a28.267,28.267,0,0,0-28.419,28.16L343.12,553.433a28.282,28.282,0,0,0,28.145,28.4l185.026.851a28.267,28.267,0,0,0,28.4-28.16l1.93-453.652A28.282,28.282,0,0,0,558.5,72.319Z" transform="translate(-330.78 -55.48)" fill="#fafafa"></path><path id="Path_7901" data-name="Path 7901" d="M376.061,105.884a3.571,3.571,0,0,0,2.143-3.3,3.359,3.359,0,1,0-6.7,0,3.556,3.556,0,0,0,2.128,3.343,5.38,5.38,0,0,0-4.559,3.875,7.6,7.6,0,0,0,4.65,2.523h2.052a7.69,7.69,0,0,0,4.742-2.508,5.258,5.258,0,0,0-4.453-3.936Z" transform="translate(-317.293 -41.249)" fill="#455a64"></path><path id="Path_7902" data-name="Path 7902" d="M375.533,113.208a7.313,7.313,0,0,0,1.824-.334,7.6,7.6,0,0,0,4.073-2.781,7.416,7.416,0,0,0,1.033-6.976A7.189,7.189,0,0,0,379.91,99.7a7.28,7.28,0,0,0-8.662,0,7.173,7.173,0,0,0-2.583,3.389,7.4,7.4,0,0,0,.988,6.991,7.6,7.6,0,0,0,4.042,2.812c1.155.319,1.839.289,1.839.35a1.807,1.807,0,0,1-.5,0,5.547,5.547,0,0,1-1.4-.167,7.7,7.7,0,0,1-5.805-6.079,7.887,7.887,0,1,1,13.981,3.343,7.6,7.6,0,0,1-4.346,2.736,5.379,5.379,0,0,1-1.4.152,1.733,1.733,0,0,1-.532-.015Z" transform="translate(-318.042 -42.1)" fill="#455a64"></path><rect id="Rectangle_879" data-name="Rectangle 879" width="61.245" height="3.055" transform="translate(76.169 62.89) rotate(0.21)" fill="#455a64"></rect><path id="Path_7903" data-name="Path 7903" d="M491.226,100.557a1.322,1.322,0,0,1-1.337,1.322,1.337,1.337,0,0,1,0-2.66,1.322,1.322,0,0,1,1.337,1.337Z" transform="translate(-255.122 -41.136)" fill="#455a64"></path><path id="Path_7904" data-name="Path 7904" d="M491.265,103.7a1.337,1.337,0,1,1-1.322-1.337,1.337,1.337,0,0,1,1.322,1.337Z" transform="translate(-255.175 -39.504)" fill="#455a64"></path><path id="Path_7905" data-name="Path 7905" d="M491.255,106.837a1.337,1.337,0,1,1-1.322-1.337A1.337,1.337,0,0,1,491.255,106.837Z" transform="translate(-255.181 -37.872)" fill="#455a64"></path><path id="Path_7906" data-name="Path 7906" d="M454.53,131.775a10.633,10.633,0,0,1-1.991.152l-5.41.122c-4.559.076-10.881.122-17.857.122s-13.282,0-17.857-.122l-5.41-.122a10.287,10.287,0,0,1-1.976-.152,8.922,8.922,0,0,1,1.976-.152l5.41-.137c4.559,0,10.881-.106,17.857-.106s13.282,0,17.857.106l5.41.137A9.118,9.118,0,0,1,454.53,131.775Z" transform="translate(-299.123 -24.421)" fill="#455a64"></path><path id="Path_7907" data-name="Path 7907" d="M533.921,139.945c0,.228-29.072.4-64.938.4s-64.983-.106-64.983-.4,29.072-.4,64.938-.4S533.921,139.732,533.921,139.945Z" transform="translate(-299.139 -20.175)" fill="#455a64"></path><path id="Path_7908" data-name="Path 7908" d="M493.329,147.635c0,.228-19.984.4-44.634.4s-44.7-.167-44.7-.4,19.984-.4,44.649-.4S493.329,147.422,493.329,147.635Z" transform="translate(-299.139 -16.179)" fill="#455a64"></path><path id="Path_7909" data-name="Path 7909" d="M493.872,166.5l-4.042-4.042L486,166.29V154.71h7.872Zm-4.042-4.559.137.122,3.541,3.571V155h-7.158v10.38Z" transform="translate(-256.522 -12.296)" fill="#263238"></path><path id="Path_7910" data-name="Path 7910" d="M422.929,164.188l-1.413-.638a3.687,3.687,0,1,1,1.094-.775Zm-3.328-7.705a3.693,3.693,0,0,0,0,7.371,4,4,0,0,0,1.778-.562h0l1.049.456-.243-1.033h0a3.663,3.663,0,0,0-2.751-6.155Z" transform="translate(-293.038 -11.486)" fill="#263238"></path><path id="Path_7911" data-name="Path 7911" d="M428.1,163.4l-1.641-3.982-3.039-2.8h7.416Zm-4-6.5,2.6,2.386,1.4,3.4,2.325-5.836Z" transform="translate(-289.046 -11.304)" fill="#263238"></path><rect id="Rectangle_880" data-name="Rectangle 880" width="4.833" height="0.274" transform="matrix(0.838, -0.546, 0.546, 0.838, 137.577, 147.839)" fill="#263238"></rect><path id="Path_7912" data-name="Path 7912" d="M415.919,157.842a2.295,2.295,0,0,0-4.559.152,2.295,2.295,0,0,0-4.559-.076,3.039,3.039,0,0,0,.562,2.234,9.119,9.119,0,0,0,1.626,1.7l2.416,2.158c.821-.745,1.52-1.444,2.325-2.188a9.556,9.556,0,0,0,1.6-1.732A3.146,3.146,0,0,0,415.919,157.842Z" transform="translate(-297.699 -11.69)" fill="#2274e5"></path><path id="Path_7913" data-name="Path 7913" d="M571.819,194.588V175.029c0-12.629-.076-30.987-.137-54.026l.258.274-219.645.122h0l.4-.4v73.585l-.38-.38,157.17.167,45.881.106h.167l-45.789.106-157.428.182h-.38V120.41h.41l219.645.137h.258v.258c0,23.1-.106,41.519-.137,54.178,0,6.292,0,11.14-.076,14.453v3.708A4.682,4.682,0,0,1,571.819,194.588Z" transform="translate(-326.201 -30.123)" fill="#263238"></path><rect id="Rectangle_881" data-name="Rectangle 881" width="48.646" height="60.85" transform="matrix(0.006, -1, 1, 0.006, 34.852, 151.832)" fill="#ebebeb"></rect><path id="Path_7914" data-name="Path 7914" d="M419.142,129.359H358.353l.365-.365c-.076,14.483-.152,31.078-.243,48.631l-.38-.4h16.55l15.79.106,28.495.213-.334.334c.152-14.6.289-26.717.365-35.227,0-4.225.122-7.6.152-9.878v-3.541a8.333,8.333,0,0,1,0,.851c0,.623,0,1.52,0,2.553v45.576h-.167l-28.495-.106-15.79-.076H358.11l-.41-.4c.122-17.568.228-34.163.319-48.631v-.35h.35l44.072.426,12.4.167h4.073Z" transform="translate(-323.202 -25.835)" fill="#263238"></path><rect id="Rectangle_882" data-name="Rectangle 882" width="42.522" height="56.564" transform="matrix(0.006, -1, 1, 0.006, 36.982, 148.774)" fill="#2274e5"></rect><path id="Path_7915" data-name="Path 7915" d="M359.3,167.886l19.908-26.306,12.143,16.6,8.358-8.784,16.17,18.814Z" transform="translate(-322.37 -19.12)" fill="#2274e5"></path><circle id="Ellipse_715" data-name="Ellipse 715" cx="4.453" cy="4.453" r="4.453" transform="translate(63.543 119.275) rotate(-45)" fill="#2274e5"></circle><path id="Path_7916" data-name="Path 7916" d="M359.3,167.886l19.908-26.306,12.143,16.6,8.358-8.784,16.17,18.814Z" transform="translate(-322.37 -19.12)" opacity="0.2"></path><g id="Group_1410" data-name="Group 1410" transform="translate(63.543 112.977)" opacity="0.2"><circle id="Ellipse_716" data-name="Ellipse 716" cx="4.453" cy="4.453" r="4.453" transform="translate(0 6.297) rotate(-45)"></circle></g><path id="Path_7917" data-name="Path 7917" d="M484.682,187.209a5.124,5.124,0,0,1-.821.076h-2.356l-8.632.122-28.525.122-28.51-.122-8.647-.122h-2.34a4.831,4.831,0,0,1-.821-.076,2.857,2.857,0,0,1,.821-.091h2.34l8.647-.122,28.51-.106,28.525.106,8.617.061h2.356A3.037,3.037,0,0,1,484.682,187.209Z" transform="translate(-299.123 4.428)" fill="#455a64"></path><path id="Path_7918" data-name="Path 7918" d="M533.906,195.405c0,.213-29.072.4-64.938.4s-64.938-.182-64.938-.4,29.072-.4,64.938-.4S533.906,195.192,533.906,195.405Z" transform="translate(-299.123 8.649)" fill="#455a64"></path><path id="Path_7919" data-name="Path 7919" d="M493.329,203.135c0,.228-19.984.4-44.634.4s-44.7-.228-44.7-.4,19.984-.4,44.649-.4S493.329,202.862,493.329,203.135Z" transform="translate(-299.139 12.666)" fill="#455a64"></path><path id="Path_7920" data-name="Path 7920" d="M493.872,221.963l-4.042-4.042L486,221.75V210.17h7.872ZM489.83,217.4l.137.122,3.541,3.571V210.459h-7.158v10.365Z" transform="translate(-256.522 16.528)" fill="#263238"></path><path id="Path_7921" data-name="Path 7921" d="M422.949,219.668l-1.413-.638a3.891,3.891,0,0,1-1.854.562,3.951,3.951,0,1,1,3.921-3.982,3.891,3.891,0,0,1-.973,2.629Zm-3.328-7.72a3.693,3.693,0,0,0,0,7.371,3.769,3.769,0,0,0,1.778-.547h0l1.049.471-.243-1.033h0a3.678,3.678,0,0,0-2.751-6.17Z" transform="translate(-293.058 17.318)" fill="#263238"></path><path id="Path_7922" data-name="Path 7922" d="M428.1,218.858l-1.641-3.982-3.039-2.8h7.416Zm-4-6.5,2.6,2.386,1.4,3.389,2.325-5.836Z" transform="translate(-289.046 17.52)" fill="#263238"></path><rect id="Rectangle_883" data-name="Rectangle 883" width="4.833" height="0.274" transform="matrix(0.838, -0.545, 0.545, 0.838, 137.571, 232.154)" fill="#263238"></rect><path id="Path_7923" data-name="Path 7923" d="M415.919,213.3a2.295,2.295,0,0,0-4.559.152,2.295,2.295,0,0,0-4.559,0,3.04,3.04,0,0,0,.562,2.234,9.121,9.121,0,0,0,1.626,1.7l2.416,2.143c.821-.745,1.52-1.52,2.325-2.188a8.994,8.994,0,0,0,1.6-1.717A3.146,3.146,0,0,0,415.919,213.3Z" transform="translate(-297.699 17.134)" fill="#2274e5"></path><path id="Path_7924" data-name="Path 7924" d="M571.819,249.98V230.421c0-12.629-.076-30.987-.137-54.026l.258.258-219.645.137h0l.4-.4V249.98l-.38-.4,157.17.182,45.881.106h.167l-45.789.106-157.428.182h-.38V176h.41l219.645.137h.258v.258c0,23.1-.106,41.519-.137,54.178,0,6.292,0,11.14-.076,14.437v3.723A2.841,2.841,0,0,1,571.819,249.98Z" transform="translate(-326.201 -1.231)" fill="#263238"></path><rect id="Rectangle_884" data-name="Rectangle 884" width="48.646" height="60.85" transform="matrix(0.006, -1, 1, 0.006, 34.865, 236.115)" fill="#ebebeb"></rect><path id="Path_7925" data-name="Path 7925" d="M419.145,184.8H358.356l.365-.35c-.076,14.483-.152,31.078-.243,48.631l-.38-.4h16.55l15.79.106,28.495.213-.334.319c.152-14.589.289-26.7.365-35.212,0-4.225.122-7.6.152-9.878v-3.541a8.342,8.342,0,0,1,0,.851c0,.623,0,1.52,0,2.553v45.561h-.167l-28.495-.106h-32.34c.35.35-.5-.486-.41-.41.122-17.553.228-34.148.319-48.631v-.35h.35l44.072.426,12.4.167h4.1C419.069,184.783,419.145,184.783,419.145,184.8Z" transform="translate(-323.204 3.01)" fill="#263238"></path><rect id="Rectangle_885" data-name="Rectangle 885" width="42.522" height="56.564" transform="matrix(0.006, -1, 1, 0.006, 36.98, 233.072)" fill="#2274e5"></rect><path id="Path_7926" data-name="Path 7926" d="M359.3,223.352l19.908-26.322,12.143,16.611,8.358-8.784,16.17,18.814Z" transform="translate(-322.37 9.698)" fill="#2274e5"></path><circle id="Ellipse_717" data-name="Ellipse 717" cx="4.453" cy="4.453" r="4.453" transform="translate(63.552 203.568) rotate(-45)" fill="#2274e5"></circle><path id="Path_7927" data-name="Path 7927" d="M359.3,223.352l19.908-26.322,12.143,16.611,8.358-8.784,16.17,18.814Z" transform="translate(-322.37 9.698)" opacity="0.2"></path><g id="Group_1411" data-name="Group 1411" transform="translate(63.552 197.271)" opacity="0.2"><circle id="Ellipse_718" data-name="Ellipse 718" cx="4.453" cy="4.453" r="4.453" transform="translate(0 6.297) rotate(-45)"></circle></g><path id="Path_7928" data-name="Path 7928" d="M443.282,244.389a3.553,3.553,0,0,1-.821.076h-2.356l-8.632.122-28.51.122-28.525-.122-8.647-.122h-2.34a3.406,3.406,0,0,1-.821-.076,2.63,2.63,0,0,1,.821-.076h2.34l8.647-.137,28.525-.106,28.51.106,8.632.137h2.356a2.736,2.736,0,0,1,.821.076Z" transform="translate(-320.64 34.146)" fill="#455a64"></path><path id="Path_7929" data-name="Path 7929" d="M493.872,384.064l-4.042-4.058L486,383.76V372.18h7.872Zm-4.042-4.559.137.121,3.541,3.571V372.56h-7.158v10.365Z" transform="translate(-256.522 100.728)" fill="#263238"></path><path id="Path_7930" data-name="Path 7930" d="M380.3,381.739l-1.413-.638a4.271,4.271,0,0,1-1.854.562,3.966,3.966,0,1,1,3.921-4,3.921,3.921,0,0,1-.973,2.644Zm-3.328-7.72a3.693,3.693,0,0,0,0,7.371,3.8,3.8,0,0,0,1.778-.562h0l1.049.471-.243-1.033h0a3.662,3.662,0,0,0-2.751-6.155Z" transform="translate(-315.24 101.533)" fill="#263238"></path><path id="Path_7931" data-name="Path 7931" d="M385.441,380.863l-1.641-3.982L380.76,374.1h7.416Zm-4-6.5,2.6,2.4,1.4,3.389,2.325-5.836Z" transform="translate(-311.217 101.726)" fill="#263238"></path><rect id="Rectangle_886" data-name="Rectangle 886" width="4.833" height="0.274" transform="matrix(0.838, -0.546, 0.546, 0.838, 72.762, 478.369)" fill="#263238"></rect><path id="Path_7932" data-name="Path 7932" d="M373.259,375.313a2.295,2.295,0,0,0-4.559.152,2.295,2.295,0,0,0-4.559-.076,3.039,3.039,0,0,0,.562,2.234,9.114,9.114,0,0,0,1.626,1.7l2.416,2.158c.821-.745,1.52-1.444,2.325-2.188a9.115,9.115,0,0,0,1.52-1.733,3.145,3.145,0,0,0,.669-2.249Z" transform="translate(-319.871 101.334)" fill="#2274e5"></path><path id="Path_7933" data-name="Path 7933" d="M571.829,464.961V448.092c0-10.972,0-27.036-.091-47.461,0-40.8-.106-99.04-.182-168.689l.35.35-219.706.03h0l.4-.4V464.992l-.35-.334,159.237.167,44.589.091h.152l-44.528.091-159.449.182h-.334V231.38H572.315v.35c-.076,69.786-.137,128.1-.182,168.963,0,20.379-.076,36.473-.091,47.385V463.73A3.441,3.441,0,0,1,571.829,464.961Z" transform="translate(-326.211 27.551)" fill="#263238"></path><path id="Path_7934" data-name="Path 7934" d="M549.719,356.135c0,.213-41.564.4-92.825.4s-92.825-.182-92.825-.4,41.549-.4,92.825-.4S549.719,355.877,549.719,356.135Z" transform="translate(-319.891 92.184)" fill="#455a64"></path><path id="Path_7935" data-name="Path 7935" d="M465.116,365.3c0,.213-22.613.4-50.516.4s-50.531-.182-50.531-.4,22.613-.4,50.531-.4S465.116,365.052,465.116,365.3Z" transform="translate(-319.891 96.944)" fill="#455a64"></path><path id="Path_7936" data-name="Path 7936" d="M475,343.688a53.518,53.518,0,0,1,9.118-.4l-.4.4h0v-3.51c0-1,0-1.96.076-2.9a8.614,8.614,0,0,1,.289-2.675,9.638,9.638,0,0,1,.274,2.675c0,.942,0,1.9.091,2.9v3.51h0l-.4.4a51.676,51.676,0,0,1-9.057-.4Z" transform="translate(-262.238 81.197)" fill="#e0e0e0"></path><path id="Path_7937" data-name="Path 7937" d="M451.64,340.715a99.354,99.354,0,0,1,17.7,0,99.354,99.354,0,0,1-17.7,0Z" transform="translate(-274.379 84.169)" fill="#e0e0e0"></path><path id="Path_7938" data-name="Path 7938" d="M428.34,340.715a99.356,99.356,0,0,1,17.7,0,99.356,99.356,0,0,1-17.7,0Z" transform="translate(-286.489 84.169)" fill="#e0e0e0"></path><path id="Path_7939" data-name="Path 7939" d="M405,340.715a99.355,99.355,0,0,1,17.7,0,99.355,99.355,0,0,1-17.7,0Z" transform="translate(-298.619 84.169)" fill="#e0e0e0"></path><path id="Path_7940" data-name="Path 7940" d="M381.72,340.715a99.523,99.523,0,0,1,17.72,0,99.534,99.534,0,0,1-17.72,0Z" transform="translate(-310.718 84.169)" fill="#e0e0e0"></path><path id="Path_7941" data-name="Path 7941" d="M364.221,334.58a51.849,51.849,0,0,1,.4,9.118l-.4-.4h3.556l2.887.091a9.636,9.636,0,0,1,2.675.273,9.225,9.225,0,0,1-2.675.289l-2.887.076h-3.556l-.4-.4A53.676,53.676,0,0,1,364.221,334.58Z" transform="translate(-320.042 81.186)" fill="#e0e0e0"></path><path id="Path_7942" data-name="Path 7942" d="M364.205,313.07a84.79,84.79,0,0,1,0,16.352A84.776,84.776,0,0,1,364.205,313.07Z" transform="translate(-320.026 70.007)" fill="#e0e0e0"></path><path id="Path_7943" data-name="Path 7943" d="M364.205,291.57a84.634,84.634,0,0,1,0,16.337A84.619,84.619,0,0,1,364.205,291.57Z" transform="translate(-320.026 58.833)" fill="#e0e0e0"></path><path id="Path_7944" data-name="Path 7944" d="M364.205,270.06a84.634,84.634,0,0,1,0,16.337A84.619,84.619,0,0,1,364.205,270.06Z" transform="translate(-320.026 47.654)" fill="#e0e0e0"></path><path id="Path_7945" data-name="Path 7945" d="M373.315,253.451a51.668,51.668,0,0,1-9.118.4c.79-.79.228-.213.4-.38h0v3.526c0,1,0,1.96-.076,2.9a9.119,9.119,0,0,1-.289,2.66,9.575,9.575,0,0,1-.274-2.66c0-.942,0-1.9-.091-2.9v-3.526h0c.182-.182-.4.38.4-.41a53.527,53.527,0,0,1,9.058.4Z" transform="translate(-320.018 38.793)" fill="#e0e0e0"></path><path id="Path_7946" data-name="Path 7946" d="M399.44,253.435a99.531,99.531,0,0,1-17.72,0A99.525,99.525,0,0,1,399.44,253.435Z" transform="translate(-310.718 38.808)" fill="#e0e0e0"></path><path id="Path_7947" data-name="Path 7947" d="M422.735,253.435a99.361,99.361,0,0,1-17.7,0,99.353,99.353,0,0,1,17.7,0Z" transform="translate(-298.603 38.808)" fill="#e0e0e0"></path><path id="Path_7948" data-name="Path 7948" d="M446.055,253.435a99.361,99.361,0,0,1-17.7,0,99.352,99.352,0,0,1,17.7,0Z" transform="translate(-286.483 38.808)" fill="#e0e0e0"></path><path id="Path_7949" data-name="Path 7949" d="M469.345,253.435a99.36,99.36,0,0,1-17.7,0,99.351,99.351,0,0,1,17.7,0Z" transform="translate(-274.379 38.808)" fill="#e0e0e0"></path><path id="Path_7950" data-name="Path 7950" d="M484.118,262.519a51.673,51.673,0,0,1-.4-9.118c.79.79.213.228.38.4h-6.444a8.554,8.554,0,0,1-2.659-.289,9.574,9.574,0,0,1,2.659-.274l2.9-.091H484.1c.182.182-.38-.4.41.4a53.528,53.528,0,0,1-.4,8.982Z" transform="translate(-262.238 38.843)" fill="#e0e0e0"></path><path id="Path_7951" data-name="Path 7951" d="M481.135,286.4a84.638,84.638,0,0,1,0-16.337A84.628,84.628,0,0,1,481.135,286.4Z" transform="translate(-259.255 47.654)" fill="#e0e0e0"></path><path id="Path_7952" data-name="Path 7952" d="M481.135,307.907a84.639,84.639,0,0,1,0-16.337A84.629,84.629,0,0,1,481.135,307.907Z" transform="translate(-259.255 58.833)" fill="#e0e0e0"></path><path id="Path_7953" data-name="Path 7953" d="M481.135,329.422a84.776,84.776,0,0,1,0-16.352A84.786,84.786,0,0,1,481.135,329.422Z" transform="translate(-259.255 70.007)" fill="#e0e0e0"></path><path id="Path_7954" data-name="Path 7954" d="M420.626,394.6a3.86,3.86,0,1,1-3.8-3.3,3.587,3.587,0,0,1,3.8,3.3Z" transform="translate(-294.489 110.662)" fill="#455a64"></path><path id="Path_7955" data-name="Path 7955" d="M428.386,394.641a3.86,3.86,0,1,1-3.8-3.3,3.556,3.556,0,0,1,3.8,3.3Z" transform="translate(-290.456 110.683)" fill="#455a64"></path><path id="Path_7956" data-name="Path 7956" d="M436.176,394.671a3.86,3.86,0,1,1-3.815-3.3,3.587,3.587,0,0,1,3.815,3.3Z" transform="translate(-286.407 110.698)" fill="#455a64"></path></g><g id="character-2--inject-56" transform="translate(536.39 333.762)"><path id="Path_7957" data-name="Path 7957" d="M642.264,457.283l-15.2,1L625,429.852l22.2-1.7.243,1.748c1,7.827,4.559,39.8,3.359,45.166C649.452,481.112,642.264,457.283,642.264,457.283Z" transform="translate(-329.505 -203.945)" fill="#2274e5"></path><g id="Group_1412" data-name="Group 1412" transform="translate(316.767 224.205)" opacity="0.4"><path id="Path_7958" data-name="Path 7958" d="M639,468.863s3.04,8.282,4.377,7.127S642.314,442.375,640,428.15l-.623.091,3.039,37.841S638.865,467.207,639,468.863Z" transform="translate(-638.997 -428.15)" fill="#fff"></path></g><path id="Path_7959" data-name="Path 7959" d="M639.169,427.92a2.174,2.174,0,0,1,.091.486,11.368,11.368,0,0,0,.2,1.4c.152,1.4.365,3.039.593,5.137.486,4.362,1.064,10.38,1.52,17.051s.805,12.7.988,17.082c0,2.036.106,3.769.152,5.182v1.9a2.509,2.509,0,0,1,0-.486,9.5,9.5,0,0,0-.076-1.413c0-1.4-.167-3.131-.289-5.167-.228-4.377-.578-10.41-1.064-17.082s-1.049-12.674-1.52-17.036c-.2-2.036-.35-3.754-.486-5.167,0-.517-.091-.973-.122-1.4S639.169,427.92,639.169,427.92Z" transform="translate(-322.155 -204.065)" fill="#263238"></path><path id="Path_7960" data-name="Path 7960" d="M642.985,453.08a11.214,11.214,0,0,0-2.4,1.155,12.56,12.56,0,0,0-1.854,1.9,4.559,4.559,0,0,1,4.255-3.04Z" transform="translate(-322.369 -190.989)" fill="#263238"></path><path id="Path_7961" data-name="Path 7961" d="M639.09,447.774a3.674,3.674,0,0,1-1.018.973c-.623.456-1.185.775-1.231.7s.4-.517,1.018-.973S639.03,447.7,639.09,447.774Z" transform="translate(-323.353 -193.752)" fill="#263238"></path><path id="Path_7962" data-name="Path 7962" d="M637.913,446.312c.076,0-.2.532-.593,1.049s-.79.9-.866.851.182-.532.593-1.064S637.838,446.251,637.913,446.312Z" transform="translate(-323.559 -194.51)" fill="#263238"></path><path id="Path_7963" data-name="Path 7963" d="M635.6,445.48c.106,0,.228.654.3,1.52a3.647,3.647,0,0,1,0,1.52,3.556,3.556,0,0,1-.3-1.52A3.648,3.648,0,0,1,635.6,445.48Z" transform="translate(-324.039 -194.939)" fill="#263238"></path><path id="Path_7964" data-name="Path 7964" d="M634.3,445.25a2.705,2.705,0,0,1,.608,1.611,2.842,2.842,0,0,1-.106,1.733,10.887,10.887,0,0,1-.228-1.672,9.747,9.747,0,0,1-.273-1.672Z" transform="translate(-324.672 -195.058)" fill="#263238"></path><path id="Path_7965" data-name="Path 7965" d="M637.525,448.52a5.939,5.939,0,0,1,.122,1.839,12.164,12.164,0,0,1-.289,1.976,5.276,5.276,0,0,1-.38,1.14.957.957,0,0,1-.532.5.745.745,0,0,1-.76-.228,3.374,3.374,0,0,1,.684-4.225,3.614,3.614,0,0,1,1.17-.684,1.125,1.125,0,0,1,.5-.076,4.774,4.774,0,0,0-1.52.942,3.359,3.359,0,0,0-.9,1.641,2.766,2.766,0,0,0,.3,2.158c.243.274.562.137.745-.2a6.269,6.269,0,0,0,.365-1.064,13.263,13.263,0,0,0,.349-1.915C637.51,449.249,637.464,448.52,637.525,448.52Z" transform="translate(-324.189 -193.359)" fill="#263238"></path><path id="Path_7966" data-name="Path 7966" d="M638.073,449.6a1.763,1.763,0,0,1-1.261.3,3.039,3.039,0,0,1-1.368-.4,1.839,1.839,0,0,1-1.034-1.52.714.714,0,0,1,.79-.623,2.067,2.067,0,0,1,.851.243,5.085,5.085,0,0,1,1.155.79,2.707,2.707,0,0,1,.821.988,12.062,12.062,0,0,0-.973-.805,6.083,6.083,0,0,0-1.155-.684c-.4-.213-1.109-.334-1.155.122s.486.9.866,1.155a3.041,3.041,0,0,0,1.231.425A6.161,6.161,0,0,0,638.073,449.6Z" transform="translate(-324.615 -193.963)" fill="#263238"></path><path id="Path_7967" data-name="Path 7967" d="M634.078,428.67a13.211,13.211,0,0,0,.228,2.1,9.377,9.377,0,0,0,2.234,4.453,9.21,9.21,0,0,0,4.255,2.568c1.246.334,2.067.319,2.067.38s-.2,0-.578,0a6.994,6.994,0,0,1-1.52-.2,8.678,8.678,0,0,1-6.672-7.2,7.294,7.294,0,0,1,0-1.52,1.764,1.764,0,0,1-.015-.578Z" transform="translate(-324.8 -203.675)" fill="#263238"></path><path id="Path_7968" data-name="Path 7968" d="M626.43,431.523a50.377,50.377,0,0,1,5.821-.669,52.628,52.628,0,0,1,5.851-.334,52.314,52.314,0,0,1-5.821.684A46.46,46.46,0,0,1,626.43,431.523Z" transform="translate(-328.762 -202.714)" fill="#263238"></path><path id="Path_7969" data-name="Path 7969" d="M638.318,437.43a23.388,23.388,0,0,1,.684,8.3c-.106,0-.122-1.854-.319-4.149S638.212,437.445,638.318,437.43Z" transform="translate(-322.596 -199.122)" fill="#263238"></path><path id="Path_7970" data-name="Path 7970" d="M638,433.76c.076,0,.41.137.851.289s.821.228.821.334-.441.182-.942,0A1.156,1.156,0,0,1,638,433.76Z" transform="translate(-322.749 -201.03)" fill="#263238"></path><path id="Path_7971" data-name="Path 7971" d="M636.214,432.516c0-.076.38.091.7.365s.532.547.456.623-.365-.091-.684-.365S636.153,432.592,636.214,432.516Z" transform="translate(-323.683 -201.686)" fill="#263238"></path><path id="Path_7972" data-name="Path 7972" d="M635.324,430.59c.107,0,.122.4.3.79s.426.7.365.775-.471-.122-.684-.638S635.233,430.56,635.324,430.59Z" transform="translate(-324.206 -202.678)" fill="#263238"></path><path id="Path_7973" data-name="Path 7973" d="M634.84,429.21c.076,0,.243.106.35.334s.122.456,0,.5-.243-.122-.365-.35S634.749,429.256,634.84,429.21Z" transform="translate(-324.437 -203.395)" fill="#263238"></path><g id="Group_1413" data-name="Group 1413" transform="translate(306.71 224.995)" opacity="0.3"><path id="Path_7974" data-name="Path 7974" d="M634.188,428.776,635.8,457.21l-3.419.2V428.67Z" transform="translate(-632.38 -428.67)"></path></g><path id="Path_7975" data-name="Path 7975" d="M555.552,379.23s-16.975,104.709,6.322,107.991,115.347-.988,115.347-.988l-1.246-35.075L595.7,445.308l6.489-64.907Z" transform="translate(-368.702 -229.37)" fill="#263238"></path><path id="Path_7976" data-name="Path 7976" d="M597.184,455.493l-15.2,1-2.067-28.434,22.2-1.7.243,1.748c1,7.827,4.559,39.817,3.359,45.166C604.357,479.262,597.184,455.493,597.184,455.493Z" transform="translate(-352.934 -204.876)" fill="#2274e5"></path><g id="Group_1414" data-name="Group 1414" transform="translate(248.2 221.484)" opacity="0.4"><path id="Path_7977" data-name="Path 7977" d="M593.88,467.073s3.039,8.3,4.377,7.128-1.064-33.616-3.374-47.841l-.638.091,3.039,37.841S593.82,465.417,593.88,467.073Z" transform="translate(-593.88 -426.36)" fill="#fff"></path></g><path id="Path_7978" data-name="Path 7978" d="M594.106,426.13a2.167,2.167,0,0,1,.091.486c0,.41.122.866.182,1.4.167,1.4.365,3.115.608,5.152.471,4.346,1.049,10.365,1.52,17.036s.805,12.7.973,17.082c0,2.036.122,3.769.167,5.182v1.413a2.38,2.38,0,0,1,0,.486,4.14,4.14,0,0,1,0-.486,7.939,7.939,0,0,0-.091-1.413c-.076-1.4-.167-3.131-.274-5.167-.228-4.377-.578-10.41-1.079-17.082s-1.033-12.674-1.52-17.036c-.2-2.036-.365-3.754-.486-5.152a12.041,12.041,0,0,0-.137-1.413A2.934,2.934,0,0,1,594.106,426.13Z" transform="translate(-345.585 -204.995)" fill="#263238"></path><path id="Path_7979" data-name="Path 7979" d="M597.9,451.291a12.769,12.769,0,0,0-2.386,1.155,12.565,12.565,0,0,0-1.854,1.9,3.875,3.875,0,0,1,1.641-2.188A3.951,3.951,0,0,1,597.9,451.291Z" transform="translate(-345.793 -191.92)" fill="#263238"></path><path id="Path_7980" data-name="Path 7980" d="M594.026,446.007a5.932,5.932,0,0,1-1.033.973c-.623.456-1.17.775-1.231.7s.41-.517,1.033-.973S593.965,445.9,594.026,446.007Z" transform="translate(-346.783 -194.675)" fill="#263238"></path><path id="Path_7981" data-name="Path 7981" d="M592.849,444.522a4.3,4.3,0,0,1-.608,1.049c-.41.517-.79.912-.866.851s.2-.532.608-1.049S592.772,444.461,592.849,444.522Z" transform="translate(-346.988 -195.44)" fill="#263238"></path><path id="Path_7982" data-name="Path 7982" d="M590.53,443.69a3.555,3.555,0,0,1,.3,1.52,3.646,3.646,0,0,1,0,1.52c-.106,0-.228-.654-.3-1.52A3.373,3.373,0,0,1,590.53,443.69Z" transform="translate(-347.465 -195.869)" fill="#263238"></path><path id="Path_7983" data-name="Path 7983" d="M589.23,443.46a2.705,2.705,0,0,1,.608,1.611,3.038,3.038,0,0,1-.106,1.732,9.576,9.576,0,0,1-.243-1.672,10.645,10.645,0,0,1-.258-1.672Z" transform="translate(-348.096 -195.988)" fill="#263238"></path><path id="Path_7984" data-name="Path 7984" d="M592.432,446.73a4.971,4.971,0,0,1,.122,1.839,10.537,10.537,0,0,1-.273,1.976,6.254,6.254,0,0,1-.38,1.14,1.018,1.018,0,0,1-.532.5.745.745,0,0,1-.76-.228,3.435,3.435,0,0,1,1.854-4.909,1.08,1.08,0,0,1,.486-.076,5.461,5.461,0,0,0-1.52.942,3.237,3.237,0,0,0-.9,1.641,2.765,2.765,0,0,0,.3,2.158c.228.274.562.137.729-.2a4.558,4.558,0,0,0,.365-1.049,10.443,10.443,0,0,0,.35-1.93C592.432,447.429,592.386,446.745,592.432,446.73Z" transform="translate(-347.605 -194.289)" fill="#263238"></path><path id="Path_7985" data-name="Path 7985" d="M593.008,447.766a1.763,1.763,0,0,1-1.261.3,2.949,2.949,0,0,1-1.368-.4,1.885,1.885,0,0,1-1.049-1.52.729.729,0,0,1,.806-.623,2.251,2.251,0,0,1,.836.243,5.23,5.23,0,0,1,1.17.79,2.7,2.7,0,0,1,.821.988,12.121,12.121,0,0,0-.973-.805,6.623,6.623,0,0,0-1.155-.684c-.4-.213-1.109-.334-1.155.122s.471.9.866,1.155a3.037,3.037,0,0,0,1.216.426A6.374,6.374,0,0,0,593.008,447.766Z" transform="translate(-348.044 -194.914)" fill="#263238"></path><path id="Path_7986" data-name="Path 7986" d="M589.024,426.88a13.213,13.213,0,0,0,.228,2.1,9.194,9.194,0,0,0,2.219,4.453A9.316,9.316,0,0,0,595.741,436c1.246.334,2.067.319,2.067.38s-.213,0-.578,0a6.9,6.9,0,0,1-1.52-.2,8.6,8.6,0,0,1-6.748-8.769,2.146,2.146,0,0,1,.061-.532Z" transform="translate(-348.239 -204.605)" fill="#263238"></path><path id="Path_7987" data-name="Path 7987" d="M581.36,429.733a50.392,50.392,0,0,1,5.821-.669,52.5,52.5,0,0,1,5.851-.334,48.838,48.838,0,0,1-5.821.684,46.54,46.54,0,0,1-5.851.319Z" transform="translate(-352.186 -203.644)" fill="#263238"></path><path id="Path_7988" data-name="Path 7988" d="M593.247,435.64a17.451,17.451,0,0,1,.714,4.118,16.839,16.839,0,0,1,0,4.194c-.106,0-.122-1.869-.319-4.164S593.141,435.655,593.247,435.64Z" transform="translate(-346.019 -200.053)" fill="#263238"></path><path id="Path_7989" data-name="Path 7989" d="M593.008,432.006c0-.076.41.122.851.274s.821.228.821.334-.441.182-.942,0S592.887,432.006,593.008,432.006Z" transform="translate(-346.145 -201.95)" fill="#263238"></path><path id="Path_7990" data-name="Path 7990" d="M591.144,430.726c0-.076.365.091.684.365s.532.547.471.623-.365-.091-.684-.365S591.083,430.8,591.144,430.726Z" transform="translate(-347.106 -202.616)" fill="#263238"></path><path id="Path_7991" data-name="Path 7991" d="M590.254,428.8c.091,0,.122.4.3.79s.41.7.365.775-.471-.122-.684-.638S590.163,428.785,590.254,428.8Z" transform="translate(-347.63 -203.608)" fill="#263238"></path><path id="Path_7992" data-name="Path 7992" d="M589.765,427.42a.764.764,0,0,1,.349.334c.106.228.122.456,0,.5s-.243-.122-.349-.35S589.674,427.466,589.765,427.42Z" transform="translate(-347.856 -204.325)" fill="#263238"></path><g id="Group_1415" data-name="Group 1415" transform="translate(238.217 222.275)" opacity="0.3"><path id="Path_7993" data-name="Path 7993" d="M589.119,426.986l1.611,28.434-3.419.2V426.88Z" transform="translate(-587.31 -426.88)"></path></g><path id="Path_7994" data-name="Path 7994" d="M499.362,471.11c1.778,18.313,32.507,20.334,58.464,20.395,35.486.076,75.3.243,75.3.243l.091-38.13-86.958,1.7h0s76.746-41.914,85.439-55.546a29.392,29.392,0,0,0,2.568-27.264l-64.573,8.617-48.51,44.163c-11.717,10.836-15.2,12.918-19.68,21.854C497.979,454.347,498.465,461.885,499.362,471.11Z" transform="translate(-395.139 -232.863)" fill="#263238"></path><path id="Path_7995" data-name="Path 7995" d="M518,435.05a71.406,71.406,0,0,0,9.438-3.708,72.2,72.2,0,0,0,9.118-4.392,65.615,65.615,0,0,0-9.453,3.708,66.872,66.872,0,0,0-9.1,4.392Z" transform="translate(-385.115 -204.569)" fill="#455a64"></path><path id="Path_7996" data-name="Path 7996" d="M522,426.223a31.124,31.124,0,0,0,6.7.593,29.728,29.728,0,0,0,6.748-.167,32.141,32.141,0,0,0-6.717-.577,30.132,30.132,0,0,0-6.732.152Z" transform="translate(-383.037 -205.088)" fill="#455a64"></path><path id="Path_7997" data-name="Path 7997" d="M581.546,463.977c-.228,0-.426-8.5-.426-18.966s.2-18.981.426-18.981.441,8.5.441,18.981S581.789,463.977,581.546,463.977Z" transform="translate(-352.311 -205.047)" fill="#455a64"></path><path id="Path_7998" data-name="Path 7998" d="M612.273,393a4.664,4.664,0,0,1-.775.638l-2.264,1.687c-2.036,1.52-5,3.48-8.723,5.957-7.416,4.939-17.766,11.6-29.3,18.814s-22.021,13.678-29.665,18.237c-3.815,2.295-6.93,4.134-9.118,5.365-1.079.623-1.93,1.094-2.523,1.383l-.213.106H529.6V445.1h.091l.274-.167c.137-.076.213-.122.228-.106l40.577-25.3c11.52-7.2,21.914-13.784,29.407-18.6l8.86-5.744,2.4-1.52a5.23,5.23,0,0,1,.836-.654Z" transform="translate(-379.087 -222.214)" fill="#455a64"></path><path id="Path_7999" data-name="Path 7999" d="M617.122,464.315a2.833,2.833,0,0,1,0-.729c0-.547,0-1.246-.076-2.112,0-1.93-.122-4.559-.213-7.948-.122-6.884-.3-16.489-.517-27.765l.38.35c-7.462.3-15.684.532-24.316.729-17.355.4-33.069.577-44.452.76l-13.465.2H530.8a12.126,12.126,0,0,1-1.292,0,6.547,6.547,0,0,1,1.277-.122l3.663-.182c3.176-.137,7.781-.289,13.465-.456l44.452-.988c8.617-.2,16.823-.41,24.316-.669h.38v.365c.091,11.276.167,20.9.228,27.78v10.061a4.655,4.655,0,0,1-.167.729Z" transform="translate(-379.134 -205.385)" fill="#455a64"></path><path id="Path_8000" data-name="Path 8000" d="M457.915,381.227l-19.346-7.872-8.009-7.842,12.158-.973,36.352,14.24a4.7,4.7,0,0,1,2.568,6.276h0a4.7,4.7,0,0,1-5.866,2.523Z" transform="translate(-430.56 -237.005)" fill="#455a64"></path><path id="Path_8001" data-name="Path 8001" d="M473.908,381.142a41.328,41.328,0,0,1-5.471-1.824l-12.978-4.893L442.5,369.5l-3.936-1.444a8.181,8.181,0,0,1-1.52-.517,19.618,19.618,0,0,1,5.593,1.383c3.374,1.094,7.994,2.766,13.07,4.7s9.62,3.754,12.887,5.121a34.612,34.612,0,0,1,5.319,2.4Z" transform="translate(-427.192 -235.446)" fill="#263238"></path><path id="Path_8002" data-name="Path 8002" d="M430.56,365.377l5.121,5,1.976-5.577Z" transform="translate(-430.56 -236.87)" fill="#263238"></path><path id="Path_8003" data-name="Path 8003" d="M439.619,364.71a12.841,12.841,0,0,1-1.52,4.468,13.251,13.251,0,0,1-2.28,4.118,12.841,12.841,0,0,1,1.52-4.468A13.48,13.48,0,0,1,439.619,364.71Z" transform="translate(-427.826 -236.917)" fill="#263238"></path><path id="Path_8004" data-name="Path 8004" d="M439.172,377.109c-.7,2.751,4.635,3.039,4.559,4.635a2.751,2.751,0,0,0-3.039,3.039c0,1.094,2.34,1.52,3.921,1.611a1.793,1.793,0,0,1,1.626,1.626,4.607,4.607,0,0,0,.076.988c.167,3.039,5.593,2.538,5.593,2.538s4.757-.289,6.079-.608,13.1-.38,13.1-.38l-2.112-21.048-5.441.319-8.83.243a13.3,13.3,0,0,1-3.586-2.553,19.924,19.924,0,0,1-3.45-4.255,1.7,1.7,0,0,0-3.222.122c-.289,1.52,1.6,5.76,5.775,9.255s-7.933,4.407-11.048,4.422" transform="translate(-426.117 -238.237)" fill="#ffbe9d"></path><path id="Path_8005" data-name="Path 8005" d="M558.744,333.79s-26.322,36.245-32.4,37.659S455.16,384.64,455.16,384.64l.729,20.972s84.086-2.356,92.247-9.787,32.75-45.212,32.75-45.212Z" transform="translate(-417.775 -252.986)" fill="#ffbe9d"></path><path id="Path_8006" data-name="Path 8006" d="M511.15,376.631a1.959,1.959,0,0,0,.7.623,4.331,4.331,0,0,0,2.477.517,4.24,4.24,0,0,0,3.237-1.945,4.376,4.376,0,0,0,.228-4.559,3.48,3.48,0,0,0-1.945-1.626,3.146,3.146,0,0,0-2.356.182,2.523,2.523,0,0,0-1.049,3.48,2.067,2.067,0,0,0,2.432.73c.593-.258.729-.623.7-.638a2.815,2.815,0,0,1-.79.365,1.793,1.793,0,0,1-1.9-.745,1.991,1.991,0,0,1,.851-2.675,2.538,2.538,0,0,1,1.839-.091,2.766,2.766,0,0,1,1.52,1.292,3.754,3.754,0,0,1-.152,3.875,3.86,3.86,0,0,1-2.72,1.793,5.531,5.531,0,0,1-3.07-.577Z" transform="translate(-388.676 -234.431)" fill="#eb996e"></path><path id="Path_8007" data-name="Path 8007" d="M561.427,349.163l-24.954,42.811L507.72,368.159s19.908-32.6,29.331-42.719Z" transform="translate(-390.458 -257.326)" fill="#2274e5"></path><path id="Path_8008" data-name="Path 8008" d="M518.842,323.419s25.562-25.182,48.434,6.2c14.377,19.756,44.072,49.771,54.528,63.068,2.371,3.039,6.079,7.507,3.465,10.3-7.872,8.526-29.346,27.6-69.1,13.358l-36.625-51.671c-6.444-8.982-2.371-19.984-.273-32.537Z" transform="translate(-386.125 -263.344)" fill="#2274e5"></path><path id="Path_8009" data-name="Path 8009" d="M561.942,343.212c-.091,0,0-.988-.38-2.735a19.467,19.467,0,0,0-2.72-6.9,18.024,18.024,0,0,0-8.222-7.051,18.89,18.89,0,0,0-13.131-.456,20.5,20.5,0,0,0-6.079,3.389,31.593,31.593,0,0,0-4.65,4.559,77.828,77.828,0,0,0-6.307,9.118c-1.672,2.72-3.039,4.909-4.042,6.4-.486.745-.912,1.307-1.185,1.687a2.352,2.352,0,0,1-.456.547,17.217,17.217,0,0,1,1.353-2.416l3.8-6.535a73.05,73.05,0,0,1,6.216-9.392,25.668,25.668,0,0,1,11.048-8.267,19.422,19.422,0,0,1,13.677.547,18.4,18.4,0,0,1,8.419,7.462,18.054,18.054,0,0,1,2.523,7.173,12.354,12.354,0,0,1,.121,2.067,2.383,2.383,0,0,1,.015.805Z" transform="translate(-386.794 -257.986)" fill="#263238"></path><g id="Group_1416" data-name="Group 1416" transform="translate(150.863 90.591)" opacity="0.2"><path id="Path_8010" data-name="Path 8010" d="M553.477,340.23l-12.614,51.123-11.033-15.38Z" transform="translate(-529.83 -340.23)"></path></g><path id="Path_8011" data-name="Path 8011" d="M537.93,316.14a25.576,25.576,0,0,1-2.735,3.343l-6.9,7.781c-2.705,3.039-5.106,5.805-6.808,7.857a30.739,30.739,0,0,1-2.827,3.252,18.74,18.74,0,0,1,2.386-3.6c1.52-2.143,3.951-5,6.656-8.039s5.258-5.714,7.112-7.6a23.577,23.577,0,0,1,3.115-2.994Z" transform="translate(-384.772 -262.159)" fill="#263238"></path><path id="Path_8012" data-name="Path 8012" d="M537.448,375.718s-1.657-1.292-4.255-3.435-6.231-5.076-10.289-8.237-7.781-5.988-10.41-8.115c-1.322-1.049-2.371-1.93-3.039-2.553a8.63,8.63,0,0,1-1.064-1.018,36.728,36.728,0,0,1,4.483,3.131c2.72,2.006,6.474,4.772,10.562,7.933s7.6,6.155,10.167,8.434c1.261,1.125,2.249,2.067,2.918,2.751A5.521,5.521,0,0,1,537.448,375.718Z" transform="translate(-390.111 -243.335)" fill="#263238"></path><path id="Path_8013" data-name="Path 8013" d="M579.321,402.006a18.228,18.228,0,0,1-1.793-1.869c-1.109-1.231-2.705-3.039-4.559-5.319-3.86-4.559-9.118-10.912-14.65-18.1s-10.38-13.875-13.8-18.769c-1.7-2.447-3.039-4.438-3.966-5.836a17.034,17.034,0,0,1-1.353-2.2,16.473,16.473,0,0,1,1.611,2.021l4.164,5.714c3.526,4.818,8.419,11.413,13.966,18.617s10.714,13.6,14.468,18.237l4.438,5.486a14.42,14.42,0,0,1,1.474,2.021Z" transform="translate(-374.097 -244.609)" fill="#263238"></path><path id="Path_8014" data-name="Path 8014" d="M575.551,375.32a8.962,8.962,0,0,1-2.432,2.021,26.564,26.564,0,0,1-14.513,4.3,9.117,9.117,0,0,1-3.146-.349,48.938,48.938,0,0,0,10.486-1.52,47.9,47.9,0,0,0,9.6-4.453Z" transform="translate(-365.647 -231.402)" fill="#263238"></path><path id="Path_8015" data-name="Path 8015" d="M576.875,371a12.161,12.161,0,0,1-2.69,2.538,34.529,34.529,0,0,1-16.322,6.808,11.836,11.836,0,0,1-3.693.122,60.168,60.168,0,0,0,11.991-3.191A61.727,61.727,0,0,0,576.875,371Z" transform="translate(-366.317 -233.648)" fill="#263238"></path><path id="Path_8016" data-name="Path 8016" d="M499.681,305.923a9.27,9.27,0,0,1-7.386-2.416,12.036,12.036,0,0,1-3.632-7.006,4.377,4.377,0,0,1,.882-3.982c1.049-.942,3.237-.35,3.131,1.064a4.818,4.818,0,0,1-1.732-3.6,3.222,3.222,0,0,1,2.325-3.039,2.431,2.431,0,0,1,2.9,2.143,8.407,8.407,0,0,1-1.854-2.477,2.857,2.857,0,0,1,.334-2.948,2.888,2.888,0,0,1,3.693,0,8.3,8.3,0,0,1,2.325,3.267,7.143,7.143,0,0,1,.258-6.307c1.733,2.69,5.243,3.708,8.45,3.511a54.208,54.208,0,0,0,9.346-2.1,13.677,13.677,0,0,1,9.377.41c3.039,1.52,4.787,4.711,6.383,7.705,3.739,7.021,7.6,14.453,7.355,22.4" transform="translate(-400.443 -280.62)" fill="#263238"></path><path id="Path_8017" data-name="Path 8017" d="M548.946,332.924,528.125,286.8l-1.915-.3c-12.918-2.1-19.361-3.83-27.492,6.444h0a17.659,17.659,0,0,0-1.6,17.218c2.948,6.672,6.96,15.38,9.787,20.486,5.045,9.118,14.969,5.577,14.969,5.577l10.015,15.592Z" transform="translate(-396.761 -278.396)" fill="#ffbe9d"></path><path id="Path_8018" data-name="Path 8018" d="M501.789,305.174a1.52,1.52,0,1,0-1.93.927A1.52,1.52,0,0,0,501.789,305.174Z" transform="translate(-395.075 -268.913)" fill="#263238"></path><path id="Path_8019" data-name="Path 8019" d="M498.108,304.5c.228,0,.76-1.094,2.006-1.778s2.523-.532,2.583-.76-.273-.319-.836-.41a3.511,3.511,0,0,0-2.158.41,3.662,3.662,0,0,0-1.52,1.626C497.987,304.1,497.987,304.468,498.108,304.5Z" transform="translate(-395.497 -269.758)" fill="#263238"></path><path id="Path_8020" data-name="Path 8020" d="M508.073,299.854a1.52,1.52,0,1,0,2.052-.547A1.52,1.52,0,0,0,508.073,299.854Z" transform="translate(-390.386 -271.01)" fill="#263238"></path><path id="Path_8021" data-name="Path 8021" d="M507.166,300.4c.228.076.745-1.094,2.006-1.778s2.523-.532,2.568-.775-.258-.3-.821-.4a3.541,3.541,0,0,0-3.663,2.021C507.044,300,507.06,300.368,507.166,300.4Z" transform="translate(-390.786 -271.888)" fill="#263238"></path><path id="Path_8022" data-name="Path 8022" d="M509.624,312.022a7.6,7.6,0,0,0-2.264.669c-.35.152-.654.213-.76,0a2.006,2.006,0,0,1-.273-1.064c-.137-1.018-.258-2.036-.4-3.039a39.338,39.338,0,0,0-1.52-7.887,40.65,40.65,0,0,0,.669,7.994l.456,3.039a2.371,2.371,0,0,0,.547,1.52.973.973,0,0,0,.851.213,2.314,2.314,0,0,0,.608-.228C508.895,312.584,509.67,312.128,509.624,312.022Z" transform="translate(-392.18 -270.184)" fill="#263238"></path><path id="Path_8023" data-name="Path 8023" d="M512.84,321.937a24.118,24.118,0,0,0,10.091-9.817s.729,8.1-8.83,12.158Z" transform="translate(-387.797 -264.249)" fill="#eb996e"></path><path id="Path_8024" data-name="Path 8024" d="M519.75,293.333c.152-.167,7.31-4.407,9.438,3.419,1.839,6.763-5.805,7.918-5.9,7.705S519.75,293.333,519.75,293.333Z" transform="translate(-384.206 -274.686)" fill="#ffbe9d"></path><path id="Path_8025" data-name="Path 8025" d="M523.439,299.566h.365a1.139,1.139,0,0,0,.836-.289,2.933,2.933,0,0,0,.365-3.039,3.828,3.828,0,0,0-.9-1.52,1.383,1.383,0,0,0-1.17-.547.593.593,0,0,0-.547.547v.35c0,.015-.167,0-.228-.334a.79.79,0,0,1,.106-.5.912.912,0,0,1,.562-.4,1.671,1.671,0,0,1,1.52.562,4.027,4.027,0,0,1,1.049,1.656,3.131,3.131,0,0,1-.608,3.4,1.276,1.276,0,0,1-1.094.2C523.439,299.718,523.439,299.581,523.439,299.566Z" transform="translate(-382.955 -273.761)" fill="#eb996e"></path><path id="Path_8026" data-name="Path 8026" d="M501.44,300.644c0,.714-.7,1.322-1.52,1.656a2.1,2.1,0,0,1-2.249-.167c-.471-.517,0-1.717,1.292-2.234S501.425,299.93,501.44,300.644Z" transform="translate(-395.774 -270.706)" fill="#263238"></path><path id="Path_8027" data-name="Path 8027" d="M510.339,296.541c-.137.714-1.018,1.17-1.9,1.52s-1.824.745-2.462.365c-.289-.2-.38-.638-.167-1.2a3.069,3.069,0,0,1,3.708-1.657C510.126,295.827,510.384,296.192,510.339,296.541Z" transform="translate(-391.512 -272.925)" fill="#263238"></path><path id="Path_8028" data-name="Path 8028" d="M512.129,306.241c.213-.076.775,1.611,0,3.5s-2.432,2.629-2.508,2.416,1.033-1.14,1.717-2.766S511.87,306.286,512.129,306.241Z" transform="translate(-389.472 -267.306)" fill="#263238"></path><path id="Path_8029" data-name="Path 8029" d="M495.475,304.57a12.948,12.948,0,0,0,10.638-5.653c1.52-2.325,2.34-5.41,4.878-6.52s5,.2,7.431.988,5.714.866,6.915-1.4a22.8,22.8,0,0,0,7.432,12.4,5.046,5.046,0,0,0,2.249,1.261,1.976,1.976,0,0,0,2.188-1.018,3.039,3.039,0,0,0-.5-2.432c-2.386-4.422-4.346-9.529-6.732-13.951a10.259,10.259,0,0,0-3.875-3.723,11.033,11.033,0,0,0-6.2-1.079,52.334,52.334,0,0,0-12.523,1.307,17.507,17.507,0,0,0-10.273,6.854c-2.295,3.526-4.377,8.83-1.884,12.158" transform="translate(-397.544 -279.191)" fill="#263238"></path></g><g id="character-1--inject-56" transform="translate(177.219 155.758)"><path id="Path_8030" data-name="Path 8030" d="M381.033,246.773c-1.976-1.109-10.045,7.386-9.635,4.772s11.368-9.5,9.24-10.638c-2.781-1.429-11.018,7.6-11.793,8.328s-2.1-.122-1.353-.745c1.049-.9,11.884-10.547,9.118-11.975-1.52-.79-3.039,1.52-3.039,1.52s-9.3,9.62-10.547,8.906,3.951-6.5,5.881-8.358,1.611-3.283-.106-3.283c-1.155,0-7.249,5.577-9.118,7.447s-6.839,7.067-6.976,2.948-2.173-7.234-3.48-7.766-2.705.729-1.991,1.869a12.372,12.372,0,0,1,1.109,4.058,7.6,7.6,0,0,1-.122,2.918c-4.65,3.845-37.993,31.23-41.884,30.06-4.164-1.246-20.152-53.373-20.152-53.373L269.82,270.936s11.474,34.3,32.7,34.665c25.471.426,61.685-45.44,61.685-45.44,4.8-2.918,9.939-6.17,12.538-8.222C382.264,247.578,381.793,247.2,381.033,246.773Z" transform="translate(-154.929 -132.323)" fill="#ffbe9d"></path><path id="Path_8031" data-name="Path 8031" d="M202.411,404.05l-8.161,7.28,1.049,1.261c4.666,5.608,24.118,28.191,28.525,30.759,4.909,2.842-6.687-17.021-6.687-17.021l3.359-3.146" transform="translate(-194.204 -38.466)" fill="#2274e5"></path><g id="Group_1417" data-name="Group 1417" transform="translate(0.35 367.59)" opacity="0.5"><path id="Path_8032" data-name="Path 8032" d="M200.833,417.5a9.118,9.118,0,0,0,1.824-6.292,8.966,8.966,0,0,0-2.8-5.836l-5.41,5.03Z" transform="translate(-194.45 -405.37)" fill="#fff"></path></g><path id="Path_8033" data-name="Path 8033" d="M222.532,433.954s3.693,7.295,2.082,7.462S202.472,419.5,194.22,408.97l.471-.38L218.4,434.547S221.438,432.86,222.532,433.954Z" transform="translate(-194.22 -36.107)" fill="#fff" opacity="0.5"></path><path id="Path_8034" data-name="Path 8034" d="M194.38,408.38s.091.137.274.38l.836,1,3.039,3.647c2.644,3.039,6.368,7.264,10.638,11.808s8.115,8.556,10.972,11.428l3.419,3.374.942.912.334.289a2.2,2.2,0,0,0-.289-.334l-.912-.942-3.328-3.45c-2.827-2.918-6.7-6.96-10.912-11.5s-7.948-8.693-10.638-11.717l-3.191-3.587-.881-.973a2.177,2.177,0,0,0-.3-.334Z" transform="translate(-194.137 -36.216)" fill="#263238"></path><path id="Path_8035" data-name="Path 8035" d="M210,426.291a12.259,12.259,0,0,1,2.295-.9,9.841,9.841,0,0,1,2.462,0,3.525,3.525,0,0,0-2.523-.273A3.632,3.632,0,0,0,210,426.291Z" transform="translate(-186.019 -27.577)" fill="#263238"></path><path id="Path_8036" data-name="Path 8036" d="M208.38,420.5c0,.091.608,0,1.307-.076a3.039,3.039,0,0,0,1.246-.4c0-.091-.593,0-1.307.076S208.365,420.413,208.38,420.5Z" transform="translate(-186.861 -30.179)" fill="#263238"></path><path id="Path_8037" data-name="Path 8037" d="M208,418.81c0,.091.471.213,1.079.258a7.814,7.814,0,0,0,1.125,0,4.178,4.178,0,0,0-1.094-.258C208.5,418.749,208,418.718,208,418.81Z" transform="translate(-187.058 -30.825)" fill="#263238"></path><path id="Path_8038" data-name="Path 8038" d="M208.56,417a6.416,6.416,0,0,0,.805,1.14c.5.562.988.973,1.049.912s-.289-.562-.805-1.14A4.029,4.029,0,0,0,208.56,417Z" transform="translate(-186.767 -31.736)" fill="#263238"></path><path id="Path_8039" data-name="Path 8039" d="M209.2,416a2.659,2.659,0,0,0,.714,1.429c.562.714,1.2,1.094,1.246,1.018a10.627,10.627,0,0,0-.988-1.216A14.2,14.2,0,0,0,209.2,416Z" transform="translate(-186.435 -32.256)" fill="#263238"></path><path id="Path_8040" data-name="Path 8040" d="M209.968,419.78a5.213,5.213,0,0,0,1.17,1.231,9.386,9.386,0,0,0,1.52,1.049,4.214,4.214,0,0,0,1.018.471.943.943,0,0,0,.669,0,.684.684,0,0,0,.319-.653,3.146,3.146,0,0,0-4.559-1.839,1.079,1.079,0,0,0-.365.289,4.846,4.846,0,0,1,1.6-.425,3.039,3.039,0,0,1,1.672.425,2.674,2.674,0,0,1,1.277,1.52c0,.334-.274.471-.608.38a4.731,4.731,0,0,1-.942-.426,11.028,11.028,0,0,1-1.52-.973A11.1,11.1,0,0,0,209.968,419.78Z" transform="translate(-186.154 -30.367)" fill="#263238"></path><path id="Path_8041" data-name="Path 8041" d="M210.139,421.227a1.717,1.717,0,0,0,.988-.669,2.659,2.659,0,0,0,.593-1.17,1.687,1.687,0,0,0-.319-1.626.684.684,0,0,0-.942.152,1.625,1.625,0,0,0-.349.729,5.441,5.441,0,0,0-.213,1.277,2.356,2.356,0,0,0,.167,1.185s0-.456,0-1.17a7.315,7.315,0,0,1,.258-1.216c.106-.41.471-.973.821-.7a1.52,1.52,0,0,1,.228,1.307,2.9,2.9,0,0,1-.471,1.094C210.534,420.954,210.063,421.136,210.139,421.227Z" transform="translate(-186.081 -31.404)" fill="#263238"></path><path id="Path_8042" data-name="Path 8042" d="M198.1,405.411a18.231,18.231,0,0,1,1.277,1.52,8.267,8.267,0,0,1,.669,8.814c-.547,1.064-1.079,1.611-1.033,1.656s.167-.106.4-.365a7.219,7.219,0,0,0,.836-1.185,8.024,8.024,0,0,0-.684-9.118,6.765,6.765,0,0,0-1.018-1.049A1.359,1.359,0,0,0,198.1,405.411Z" transform="translate(-192.203 -37.76)" fill="#263238"></path><path id="Path_8043" data-name="Path 8043" d="M201.37,413.8a15.2,15.2,0,0,0,2.356,3.039,13.861,13.861,0,0,0,2.857,2.614s-1.2-1.261-2.629-2.827S201.446,413.755,201.37,413.8Z" transform="translate(-190.504 -33.399)" fill="#263238"></path><path id="Path_8044" data-name="Path 8044" d="M199.282,411.31c-.091,0-.167.35-.334.745s-.365.7-.3.775.4-.2.593-.654S199.373,411.295,199.282,411.31Z" transform="translate(-191.927 -34.693)" fill="#263238"></path><path id="Path_8045" data-name="Path 8045" d="M199.429,409.28c-.091,0-.182.3-.2.7s0,.7.137.7.167-.3.182-.684S199.505,409.28,199.429,409.28Z" transform="translate(-191.618 -35.748)" fill="#263238"></path><path id="Path_8046" data-name="Path 8046" d="M198.64,407.446c0,.076.182.319.35.7s.213.729.3.729.2-.4,0-.866S198.686,407.37,198.64,407.446Z" transform="translate(-191.923 -36.71)" fill="#263238"></path><path id="Path_8047" data-name="Path 8047" d="M198.019,406.241c-.076,0-.076.243,0,.456s.228.38.3.334,0-.228,0-.441S198.111,406.211,198.019,406.241Z" transform="translate(-192.275 -37.329)" fill="#263238"></path><path id="Path_8048" data-name="Path 8048" d="M317.136,439.24l.973,4.559s23.48.486,18.373,3.252c-4.559,2.462-34.619,7.386-42.005,8.465l-1.656.228-1.991-10.988Z" transform="translate(-144.01 -20.177)" fill="#2274e5"></path><g id="Group_1418" data-name="Group 1418" transform="translate(147.216 427.501)" opacity="0.5"><path id="Path_8049" data-name="Path 8049" d="M302.23,450.731a9.377,9.377,0,0,0-4.559-4.939,9.118,9.118,0,0,0-6.58-.669l1.52,7.386Z" transform="translate(-291.09 -444.793)" fill="#fff"></path></g><path id="Path_8050" data-name="Path 8050" d="M329.009,442.68s8.328.669,7.6,2.158-30.9,7.6-44.452,9.118l-.076-.593,35.273-6.839S327.49,443.045,329.009,442.68Z" transform="translate(-143.36 -18.389)" fill="#fff" opacity="0.5"></path><path id="Path_8051" data-name="Path 8051" d="M291.82,452.857h.456l1.322-.2,4.848-.76c4.088-.684,9.726-1.687,15.927-2.948s11.778-2.508,15.805-3.465l4.772-1.17,1.292-.35.441-.137-.471.076-1.292.274-4.787,1.079c-4.042.912-9.635,2.128-15.836,3.374s-11.808,2.295-15.9,3.039l-4.818.866-1.322.243Z" transform="translate(-143.495 -17.792)" fill="#263238"></path><path id="Path_8052" data-name="Path 8052" d="M315.4,447.09a10.406,10.406,0,0,1,.426-2.477,12.255,12.255,0,0,1,1.261-2.173,4.377,4.377,0,0,0-1.687,4.65Z" transform="translate(-131.314 -18.514)" fill="#263238"></path><path id="Path_8053" data-name="Path 8053" d="M309.7,444.792a3.039,3.039,0,0,0,.623-1.185c.258-.684.41-1.277.319-1.307a3.038,3.038,0,0,0-.623,1.185C309.76,444.169,309.608,444.747,309.7,444.792Z" transform="translate(-134.217 -18.587)" fill="#263238"></path><path id="Path_8054" data-name="Path 8054" d="M308.135,444.106a4.609,4.609,0,0,0,.805-.821c.38-.5.608-.942.532-1s-.426.319-.805.821S308.059,444.045,308.135,444.106Z" transform="translate(-135.023 -18.599)" fill="#263238"></path><path id="Path_8055" data-name="Path 8055" d="M306.9,442.184a3.631,3.631,0,0,0,1.413-.106c.775-.152,1.383-.334,1.353-.426A6.185,6.185,0,0,0,306.9,442.184Z" transform="translate(-135.658 -18.926)" fill="#263238"></path><path id="Path_8056" data-name="Path 8056" d="M306.36,441.055a3.952,3.952,0,0,0,3.176-.4,8.463,8.463,0,0,0-1.52.213,8.914,8.914,0,0,0-1.657.182Z" transform="translate(-135.938 -19.439)" fill="#263238"></path><path id="Path_8057" data-name="Path 8057" d="M310,443.36a5.018,5.018,0,0,0,1.687-.365,9.57,9.57,0,0,0,1.733-.76,4.761,4.761,0,0,0,.957-.638.927.927,0,0,0,.3-.608.654.654,0,0,0-.4-.623,3.161,3.161,0,0,0-3.662,1.687,2.933,2.933,0,0,0-.319,1.246v.471a4.56,4.56,0,0,1,.471-1.611,3.283,3.283,0,0,1,1.261-1.231,2.629,2.629,0,0,1,2.052-.273c.319.137.273.486,0,.714a5.043,5.043,0,0,1-.881.608,10.865,10.865,0,0,1-1.656.805C310.593,443.178,310,443.3,310,443.36Z" transform="translate(-134.047 -19.647)" fill="#263238"></path><path id="Path_8058" data-name="Path 8058" d="M311.175,443.313a1.778,1.778,0,0,0,0-1.231,2.948,2.948,0,0,0-.714-1.14,1.732,1.732,0,0,0-1.52-.578.684.684,0,0,0-.365.882,1.7,1.7,0,0,0,.456.7,4.556,4.556,0,0,0,1,.866,2.718,2.718,0,0,0,1.109.5s-.4-.243-.973-.684a6.956,6.956,0,0,1-.927-.881c-.3-.3-.593-.912-.182-1.079a1.52,1.52,0,0,1,1.261.486,2.841,2.841,0,0,1,.714,1.018,5.6,5.6,0,0,1,.137,1.14Z" transform="translate(-134.812 -19.6)" fill="#263238"></path><path id="Path_8059" data-name="Path 8059" d="M291.21,445.153a9.6,9.6,0,0,1,1.96-.319,8.4,8.4,0,0,1,8.039,4.1,18.746,18.746,0,0,1,.881,1.793,1.965,1.965,0,0,0-.106-.532,6.387,6.387,0,0,0-.578-1.368,8.131,8.131,0,0,0-8.267-4.225,7.779,7.779,0,0,0-1.52.319A1.459,1.459,0,0,0,291.21,445.153Z" transform="translate(-143.812 -17.427)" fill="#263238"></path><path id="Path_8060" data-name="Path 8060" d="M300.27,447.073a14.512,14.512,0,0,0,3.936-.4,15.478,15.478,0,0,0,3.8-1.094c0-.091-1.733.365-3.86.775S300.255,446.982,300.27,447.073Z" transform="translate(-139.103 -16.886)" fill="#263238"></path><path id="Path_8061" data-name="Path 8061" d="M296.86,447.256a3.969,3.969,0,0,0,.471.7c.258.365.426.684.5.669s0-.441-.243-.866S296.89,447.18,296.86,447.256Z" transform="translate(-140.876 -16.021)" fill="#263238"></path><path id="Path_8062" data-name="Path 8062" d="M295.25,445.917a1.7,1.7,0,0,0,.5.547c.334.228.638.334.684.258s-.167-.319-.5-.532S295.3,445.841,295.25,445.917Z" transform="translate(-141.712 -16.718)" fill="#263238"></path><path id="Path_8063" data-name="Path 8063" d="M293.261,445.637c0,.091.38,0,.805.076s.729.213.79.137-.243-.4-.745-.456S293.216,445.561,293.261,445.637Z" transform="translate(-142.748 -16.984)" fill="#263238"></path><path id="Path_8064" data-name="Path 8064" d="M291.88,445.515a.828.828,0,0,0,.4.228c.228.046.441,0,.456-.091s-.152-.2-.4-.228S291.9,445.424,291.88,445.515Z" transform="translate(-143.464 -16.969)" fill="#263238"></path><path id="Path_8065" data-name="Path 8065" d="M263.828,297c1.444,2.036,12.918,87.11,12.918,87.11l-77.126,75.53L217.7,478.774s90.727-76.472,92.582-85.241c2.219-10.456-3.966-90.348-3.966-90.348Z" transform="translate(-191.413 -94.103)" fill="#eb996e"></path><path id="Path_8066" data-name="Path 8066" d="M244.479,339.507h16.763L239.51,305.07Z" transform="translate(-170.682 -89.908)" fill="#263238"></path><path id="Path_8067" data-name="Path 8067" d="M295.28,407.66c5.091,24.65,23.8,128.067,23.8,128.067l25.911-4.559L332.833,400.593a43.417,43.417,0,0,0-2.082-10.121l-29.787-89.618-56.23-35.744c-.562,0-9.118,23.085-7.872,39.087a40.926,40.926,0,0,0,7.112,20.015c3.571,5.213,8.556,12.492,9.665,14.164C255.373,340.929,295.28,407.66,295.28,407.66Z" transform="translate(-172.122 -110.677)" fill="#ffbe9d"></path><path id="Path_8068" data-name="Path 8068" d="M242.85,265.11S230.692,298.8,237.364,316.4s25.957,47.8,25.957,47.8l60.789-27.355L295.235,285.17v-9.817Z" transform="translate(-172.837 -110.677)" fill="#455a64"></path><path id="Path_8069" data-name="Path 8069" d="M265.551,360.929a5.418,5.418,0,0,1-.593-.836l-1.52-2.492c-1.337-2.158-3.237-5.319-5.486-9.3a154.77,154.77,0,0,1-14.285-32.6,90.393,90.393,0,0,1-3.374-19.346,70.605,70.605,0,0,1,.76-16.018,57.634,57.634,0,0,1,2.705-10.471c.41-1.216.851-2.112,1.094-2.735a4.318,4.318,0,0,1,.456-.912,5.694,5.694,0,0,1-.3.973c-.2.638-.593,1.52-.957,2.766a64.087,64.087,0,0,0-2.447,10.456,74.3,74.3,0,0,0-.608,15.866,92,92,0,0,0,3.4,19.179,164.385,164.385,0,0,0,14.027,32.552c2.173,4,4,7.188,5.243,9.407l1.428,2.568a3.845,3.845,0,0,1,.456.942Z" transform="translate(-170.356 -110.1)" fill="#263238"></path><path id="Path_8070" data-name="Path 8070" d="M277.456,353.16a4.728,4.728,0,0,1-.562-.76c-.4-.578-.9-1.322-1.52-2.249-1.292-1.976-3.131-4.833-5.334-8.419a184.874,184.874,0,0,1-15.06-29.209,89.558,89.558,0,0,1-6.52-32.157,62.313,62.313,0,0,1,.76-9.939c.167-1.17.4-2.067.517-2.675a4.56,4.56,0,0,1,.243-.912,3.633,3.633,0,0,1-.091.942c0,.623-.243,1.52-.365,2.69a70.131,70.131,0,0,0-.5,9.893,92.7,92.7,0,0,0,6.7,31.914,201.007,201.007,0,0,0,14.833,29.164l5.106,8.541,1.383,2.34A3.527,3.527,0,0,1,277.456,353.16Z" transform="translate(-166.03 -109.777)" fill="#263238"></path><path id="Path_8071" data-name="Path 8071" d="M289.7,343.473a5.915,5.915,0,0,1-.547-.623l-1.52-1.884c-1.261-1.626-3.039-4.073-5-7.143s-4.316-6.854-6.672-11.124-4.681-9.118-6.9-14.285-4-10.258-5.471-14.908S261.027,284.6,260.237,281s-1.368-6.535-1.672-8.571c-.137-.957-.243-1.732-.334-2.356a2.582,2.582,0,0,1,0-.821,4.2,4.2,0,0,1,.213.79c.137.623.289,1.383.486,2.325.4,2.021,1.033,4.924,1.9,8.5s2.052,7.8,3.526,12.431,3.328,9.635,5.5,14.8,4.559,9.969,6.824,14.255,4.559,8.07,6.489,11.17,3.6,5.593,4.787,7.264l1.322,1.976A3.173,3.173,0,0,1,289.7,343.473Z" transform="translate(-160.969 -108.525)" fill="#263238"></path><path id="Path_8072" data-name="Path 8072" d="M297.12,337.522a24.042,24.042,0,0,1-1.322-2.568c-.821-1.672-2.067-4.042-3.723-6.9-3.267-5.775-8.556-13.267-13.677-22.006a88.265,88.265,0,0,1-6.261-12.887,52.8,52.8,0,0,1-3.039-11.307,37.654,37.654,0,0,1-.365-7.872,16.689,16.689,0,0,1,.213-2.143,4.653,4.653,0,0,1,.137-.729,27.434,27.434,0,0,1,0,2.872,43,43,0,0,0,.608,7.8A55.668,55.668,0,0,0,272.85,292.9a91.882,91.882,0,0,0,6.261,12.75c5.137,8.693,10.365,16.261,13.526,22.127,1.611,2.9,2.781,5.334,3.511,7.036.4.851.638,1.52.821,1.991a3.665,3.665,0,0,1,.152.714Z" transform="translate(-155.528 -107.558)" fill="#263238"></path><path id="Path_8073" data-name="Path 8073" d="M278.827,277.481l22.72-14.772s-12.158-46.2-30.881-47.689L269.83,231.9Z" transform="translate(-154.924 -136.709)" fill="#263238"></path><path id="Path_8074" data-name="Path 8074" d="M256.48,211.1s-29.072-3.131-21.276,38.434l7.477,43.738,52.172,10.243,11.4-52.8c3.48-15.942-2.918-23.571-2.918-23.571a21.732,21.732,0,0,0-14.042-10.061L256.419,211.1" transform="translate(-173.61 -138.775)" fill="#263238"></path><path id="Path_8075" data-name="Path 8075" d="M275.757,228.14a13.54,13.54,0,0,0,0,6.079,24.883,24.883,0,0,0,2.553,6.185,52.362,52.362,0,0,1,3.708,7.507,23.905,23.905,0,0,1,.2,15.091,21.879,21.879,0,0,1-1.869,4.225,6.077,6.077,0,0,1-.988,1.383,42.037,42.037,0,0,0,2.31-5.775,24.468,24.468,0,0,0-.4-14.665,56.112,56.112,0,0,0-3.617-7.416,23.934,23.934,0,0,1-2.447-6.413,11.6,11.6,0,0,1,0-4.635A4.149,4.149,0,0,1,275.757,228.14Z" transform="translate(-152.249 -129.891)" fill="#455a64"></path><path id="Path_8076" data-name="Path 8076" d="M270.709,250.44a39.863,39.863,0,0,1-7.143,3.039,38.556,38.556,0,0,1-7.416,2.234,36.369,36.369,0,0,1,7.143-3.039,36.978,36.978,0,0,1,7.416-2.234Z" transform="translate(-162.034 -118.301)" fill="#455a64"></path><path id="Path_8077" data-name="Path 8077" d="M276.642,237.626a8.039,8.039,0,0,0-4.483-6.535,9,9,0,0,0-2.31-.775h0c-1.824-1.125-6.58-.289-8.571.532a12.6,12.6,0,0,0-4.909,4.027,11.7,11.7,0,0,0-2.507,5,6.231,6.231,0,0,0,1.261,5.3,4.255,4.255,0,0,0,5.106,1.018,7.6,7.6,0,0,0,0,3.83,2.568,2.568,0,0,0,3.039,1.808c1.14-.4,1.52-1.672,1.656-2.948a2.812,2.812,0,0,0,2.9,2.508,2.781,2.781,0,0,0,2.219-2.584,2.371,2.371,0,0,0,1.261,1.611c1.337.517,2.766-.927,2.812-2.356a6.838,6.838,0,0,0-1.641-3.875A6.6,6.6,0,0,0,276.642,237.626Zm-13.586,5.121a3.039,3.039,0,0,1-3.739-.289,3.176,3.176,0,0,1-.562-3.738,2.173,2.173,0,0,1,1.717-1.2,2.948,2.948,0,0,1,3.435,1.52A2.9,2.9,0,0,1,263.055,242.748Zm6.474,1.125c-.091.426-.608.608-1.033.593a2.234,2.234,0,0,1-1.869-1.185,2.812,2.812,0,0,1-.942,1.748.7.7,0,0,1-.593.213c-.319-.106-.365-.547-.3-.9a6.291,6.291,0,0,1,1.413-2.933l-.152-.076a6.079,6.079,0,0,1,3.039,1.52A1.109,1.109,0,0,1,269.529,243.872Zm2.66-3.3a3.039,3.039,0,0,1-3.738-.289,3.176,3.176,0,0,1-.562-3.739,2.128,2.128,0,0,1,1.717-1.185,3.039,3.039,0,0,1,2.584,5.213Z" transform="translate(-163.301 -129.043)" fill="#fafafa"></path><path id="Path_8078" data-name="Path 8078" d="M277.187,172.54a16.839,16.839,0,0,1,1.748,9.422c-.228,2.112-.805,4.453.365,6.231,1.429,2.143,4.787,2.325,6.185,4.559,2.021,3.131-1.52,7.6.091,10.9,1.064,2.219,3.875,2.872,5.79,4.438a7.8,7.8,0,0,1,1.778,9.377c-1.383,2.69-4.1,4.377-6.687,5.942l-5.927,3.571a5.426,5.426,0,0,1-3.45,1.125c-2.173-.3-3.191-2.948-5.167-3.936-2.432-1.216-5.258.471-7.979.654a7.112,7.112,0,0,1-7.6-7.6" transform="translate(-161.946 -158.787)" fill="#2274e5"></path><path id="Path_8079" data-name="Path 8079" d="M276.382,235.893c-.654-6.839-1.216-14.027-1.216-14.027s8.647-2.325,9.346-13.981c.654-11.109-3.632-36.2-3.632-36.2h0a33.13,33.13,0,0,0-35.85,12.006h0l6.2,55.363a11.96,11.96,0,0,0,13.677,10.106h0A12.629,12.629,0,0,0,276.382,235.893Z" transform="translate(-167.813 -159.923)" fill="#ffbe9d"></path><path id="Path_8080" data-name="Path 8080" d="M270.22,184.658a1.52,1.52,0,0,1-1.261,1.626,1.413,1.413,0,0,1-1.656-1.17,1.52,1.52,0,0,1,1.277-1.626,1.4,1.4,0,0,1,1.641,1.17Z" transform="translate(-156.24 -153.11)" fill="#263238"></path><path id="Path_8081" data-name="Path 8081" d="M271.231,183.633c-.167.2-1.368-.517-2.948-.35s-2.66,1.064-2.857.881,0-.441.532-.851a4.118,4.118,0,0,1,2.264-.957,3.967,3.967,0,0,1,2.371.517C271.109,183.207,271.307,183.526,271.231,183.633Z" transform="translate(-157.252 -153.695)" fill="#263238"></path><path id="Path_8082" data-name="Path 8082" d="M259.39,186.073a1.52,1.52,0,0,1-1.277,1.626,1.413,1.413,0,0,1-1.641-1.185,1.52,1.52,0,0,1,1.261-1.626,1.429,1.429,0,0,1,1.656,1.185Z" transform="translate(-161.869 -152.381)" fill="#263238"></path><path id="Path_8083" data-name="Path 8083" d="M260.4,185.068c-.167.213-1.368-.5-2.948-.334s-2.659,1.064-2.857.881,0-.441.532-.851a3.967,3.967,0,0,1,2.264-.957,3.875,3.875,0,0,1,2.356.517C260.279,184.658,260.477,184.977,260.4,185.068Z" transform="translate(-162.88 -152.942)" fill="#263238"></path><path id="Path_8084" data-name="Path 8084" d="M263.626,196.511a9.772,9.772,0,0,1,2.523-.714c.4-.091.775-.2.821-.486a2.127,2.127,0,0,0-.4-1.17l-1.52-3.039a52.671,52.671,0,0,1-3.465-7.781,52.5,52.5,0,0,1,4.088,7.477c.5,1.049.988,2.036,1.52,3.039a2.416,2.416,0,0,1,.365,1.52,1.079,1.079,0,0,1-.608.653,2.784,2.784,0,0,1-.684.167A10.2,10.2,0,0,1,263.626,196.511Z" transform="translate(-159.206 -153.185)" fill="#263238"></path><path id="Path_8085" data-name="Path 8085" d="M270.25,205.139a29.361,29.361,0,0,1-15.76-2.6s4.559,7.6,15.866,5.319Z" transform="translate(-162.896 -143.196)" fill="#eb996e"></path><path id="Path_8086" data-name="Path 8086" d="M264.314,194.84a2.857,2.857,0,0,0-2.629-.821,2.659,2.659,0,0,0-1.7,1.14,1.656,1.656,0,0,0,0,1.9,1.915,1.915,0,0,0,2.128.319,6.078,6.078,0,0,0,1.9-1.4,1.672,1.672,0,0,0,.41-.517.532.532,0,0,0,0-.593" transform="translate(-160.197 -147.654)" fill="#2274e5"></path><path id="Path_8087" data-name="Path 8087" d="M259.985,193c.258,0,.426,1.687,2.021,2.751s3.4.714,3.435.942-.365.38-1.14.471a4.271,4.271,0,0,1-2.857-.684,3.739,3.739,0,0,1-1.52-2.325C259.727,193.456,259.863,193,259.985,193Z" transform="translate(-160.124 -148.154)" fill="#263238"></path><path id="Path_8088" data-name="Path 8088" d="M286.125,170.939a8.4,8.4,0,0,1-2.812,9.65c-2.948,2.112-6.869,2.021-10.44,2.644s-7.6,2.766-7.811,6.383c-.137,2.2,1.17,4.468.38,6.52-.927,2.4-4.21,3.039-5.365,5.4-1.854,3.693,3.039,7.751,2.31,11.823-.41,2.416-2.69,4.164-3.191,6.565-.7,3.419,2.28,7.462,0,10.167-1.687,2.067-5.015,1.368-7.386.122s-4.909-2.918-7.492-2.234a22.326,22.326,0,0,0-4.164,2.386,7.447,7.447,0,0,1-10.638-8.769,20.578,20.578,0,0,1,3.359-5.5,8.282,8.282,0,0,0,1.9-6,14.133,14.133,0,0,0-2.234-4.392,4.893,4.893,0,0,1-.608-4.7c1.4-2.538,5.623-1.839,7.447-4.1,2.492-3.115-1.945-7.933-.274-11.55,1.9-4.088,9.362-2.492,11.261-6.58.7-1.52.35-3.252.7-4.863.775-3.678,4.939-5.623,8.693-5.851s7.6.669,11.246.122c2.036-.3,4-1.033,6.079-1.52a9.255,9.255,0,0,1,6.079.41,4.559,4.559,0,0,1,2.538,5.076" transform="translate(-176.051 -162.018)" fill="#2274e5"></path><path id="Path_8089" data-name="Path 8089" d="M265.691,178.1a14.012,14.012,0,0,0,9.468,7.963,34.539,34.539,0,0,0,0-8.5,13.48,13.48,0,0,0-3.663-7.6,8.419,8.419,0,0,0-7.827-2.295" transform="translate(-158.125 -161.424)" fill="#2274e5"></path><g id="Group_1419" data-name="Group 1419" transform="translate(60.144 10.242)" opacity="0.3"><path id="Path_8090" data-name="Path 8090" d="M234.653,227.9a1.855,1.855,0,0,1-.577-.684,2.614,2.614,0,0,1,.213-2.462,3.556,3.556,0,0,1,1.337-1.246,9.935,9.935,0,0,1,2.067-.851,12.533,12.533,0,0,0,2.4-.988,3.662,3.662,0,0,0,1.839-2.264,4.65,4.65,0,0,0-.608-3.146c-.5-1-1.17-1.96-1.611-3.039a8.085,8.085,0,0,1,.79-7.188,7.6,7.6,0,0,1,2.933-2.705c1.246-.623,2.66-.942,4.012-1.52a5.942,5.942,0,0,0,1.884-1.261,3.891,3.891,0,0,0,1.033-2.067,17.173,17.173,0,0,0-.41-4.559,8.556,8.556,0,0,1,.577-4.422,11.216,11.216,0,0,1,2.432-3.632,16.823,16.823,0,0,1,7.188-4.1,65.135,65.135,0,0,1,7.416-1.641,46.845,46.845,0,0,0,6.489-1.52A18.022,18.022,0,0,0,279,176.2a13.13,13.13,0,0,0,3.039-2.842,9.741,9.741,0,0,0,1.322-2.264,5.451,5.451,0,0,0,.289-.866s-.106.289-.35.836a9.846,9.846,0,0,1-1.368,2.219A16.064,16.064,0,0,1,274,178.391a48.4,48.4,0,0,1-6.459,1.52,63.832,63.832,0,0,0-7.462,1.626,17.265,17.265,0,0,0-7.34,4.164,11.52,11.52,0,0,0-2.492,3.739,8.829,8.829,0,0,0-.608,4.559,15.974,15.974,0,0,1,.41,4.559,3.481,3.481,0,0,1-.942,1.9,5.485,5.485,0,0,1-1.778,1.17c-1.307.593-2.736.912-4.012,1.52a7.872,7.872,0,0,0-3.039,2.842,8.252,8.252,0,0,0-.775,7.431,31.376,31.376,0,0,0,1.626,3.039,4.559,4.559,0,0,1,.608,3.039,3.465,3.465,0,0,1-1.717,2.128,11.462,11.462,0,0,1-2.356.988,11,11,0,0,0-2.082.9,3.754,3.754,0,0,0-1.383,1.322,2.705,2.705,0,0,0-.152,2.553,1.428,1.428,0,0,0,.608.517Z" transform="translate(-233.796 -170.23)" fill="#fff"></path></g><g id="Group_1420" data-name="Group 1420" transform="translate(63.722 7.735)" opacity="0.3"><path id="Path_8091" data-name="Path 8091" d="M236.15,193.26h.137l.426.076a13.682,13.682,0,0,0,1.641.228,8.664,8.664,0,0,0,2.614-.091,5.243,5.243,0,0,0,3.039-1.793,10.091,10.091,0,0,0,1.869-3.769,47.089,47.089,0,0,1,1.368-4.559,10.881,10.881,0,0,1,3.146-4.118,16.717,16.717,0,0,1,4.939-2.72,44.162,44.162,0,0,1,10.82-1.748c1.687-.152,3.3-.319,4.8-.562a25.664,25.664,0,0,0,4.073-1.033,15.44,15.44,0,0,0,5.319-2.948,10.02,10.02,0,0,0,1.52-1.641l-.106.091-.289.319a13.674,13.674,0,0,1-1.2,1.125,15.729,15.729,0,0,1-5.3,2.842,27.2,27.2,0,0,1-4.042.973c-1.52.243-3.039.4-4.787.532a43.068,43.068,0,0,0-10.9,1.748,17.005,17.005,0,0,0-5.03,2.766,10.882,10.882,0,0,0-3.222,4.27,40.712,40.712,0,0,0-1.353,4.635,10.091,10.091,0,0,1-1.793,3.693,5.076,5.076,0,0,1-2.827,1.763,9.211,9.211,0,0,1-2.583.152,11.205,11.205,0,0,1-1.641-.167Z" transform="translate(-236.15 -168.58)" fill="#fff"></path></g><g id="Group_1421" data-name="Group 1421" transform="translate(117.301 47.719)" opacity="0.3"><path id="Path_8092" data-name="Path 8092" d="M278.388,210.254l.228-.076a4.921,4.921,0,0,0,.608-.319,6.231,6.231,0,0,0,1.824-1.732,6.686,6.686,0,0,0,1.246-3.526,6.413,6.413,0,0,0-1.444-4.316,6.747,6.747,0,0,0-3.89-2.386,21.274,21.274,0,0,1-3.647-.517,2.827,2.827,0,0,1-1.7-1.611,2.175,2.175,0,0,1-.091-.881.588.588,0,0,1-.076.228,1.671,1.671,0,0,0,0,.7,2.872,2.872,0,0,0,1.733,1.778,20.167,20.167,0,0,0,3.678.608,6.459,6.459,0,0,1,3.693,2.295,6.185,6.185,0,0,1,1.4,4.088,6.793,6.793,0,0,1-1.125,3.4,6.533,6.533,0,0,1-1.717,1.763C278.616,210.072,278.388,210.254,278.388,210.254Z" transform="translate(-271.406 -194.89)" fill="#fff"></path></g><path id="Path_8093" data-name="Path 8093" d="M251.06,175.45a10.334,10.334,0,0,0-6.565-11.52,6.261,6.261,0,0,0-5.349.35,6.079,6.079,0,0,0-2.4,3.556,8.83,8.83,0,0,0,11.094,10.744,4.954,4.954,0,0,0,3.617-3.3" transform="translate(-172.277 -163.49)" fill="#2274e5"></path><path id="Path_8094" data-name="Path 8094" d="M247.814,169.17a4.316,4.316,0,0,1-.973,3.693c-1.277,1.839-3.131,2.356-3.161,2.158a24.132,24.132,0,0,0,2.508-2.614C247.312,170.781,247.571,169.14,247.814,169.17Z" transform="translate(-168.515 -160.539)" fill="#455a64"></path><rect id="Rectangle_887" data-name="Rectangle 887" width="131.912" height="164.996" transform="matrix(0.254, -0.967, 0.967, 0.254, 92.271, 223.045)" fill="#f5f5f5"></rect><path id="Path_8095" data-name="Path 8095" d="M448.2,268.435l-.775-.182-2.249-.562-8.662-2.249-32.689-8.5L288.626,226.825l.426-.258L255.618,354.132h0l-.426-.5,159.571,42.036-.41.228c10.182-38.4,18.617-70.242,24.5-92.505,3.039-11.124,5.3-19.863,6.884-25.835.805-3.039,1.413-5.258,1.839-6.808s.653-2.356.653-2.356-.182.775-.578,2.295l-1.732,6.778-6.7,25.835c-5.821,22.325-14.164,54.269-24.224,92.794l-.076.319-.319-.091L255.025,354.436l-.4-.106.106-.38h0L288.322,226.4l.091-.35.35.091,115.362,30.531,32.568,8.647,8.586,2.31,2.188.593Z" transform="translate(-162.824 -130.977)" fill="#263238"></path><rect id="Rectangle_888" data-name="Rectangle 888" width="115.497" height="153.661" transform="translate(99.092 213.733) rotate(-75.548)" fill="#2274e5"></rect><path id="Path_8096" data-name="Path 8096" d="M259.96,324.983,330,269.3l20.7,51.807,27.872-17.462,29.741,60.348Z" transform="translate(-160.053 -108.499)" opacity="0.2"></path><g id="Group_1422" data-name="Group 1422" transform="translate(194.14 149.186)" opacity="0.2"><path id="Path_8097" data-name="Path 8097" d="M345.74,276.8a12.082,12.082,0,1,1-8.617-14.741A12.082,12.082,0,0,1,345.74,276.8Z" transform="translate(-321.967 -261.657)"></path></g><path id="Path_8098" data-name="Path 8098" d="M244.214,278.889c14.392,14.772,35.516,23.89,43.115,26.854,1.17-.167,2.523-.38,4.118-.714a12.417,12.417,0,0,0,3.875-1.52,18.966,18.966,0,0,0,4.134-3.131,1.611,1.611,0,0,1,2.933.836c-.076,1.444-2.766,4.939-7.386,7.219s3.283,4.073,6.155,4.787,11.626,3.313,12.158,4.377c.7,1.52-.821,2.584-3.678,1.809S298.1,316.9,297.8,318.432s14.346,4.924,14.346,4.924,3.237.228,2.948,2.006c-.517,3.207-15.82-1.52-17.264-2.052-1-.334-1.383,1.307-.289,1.626s14.681,3.039,14.179,6.337c-.38,2.508-12.614-3.815-15.744-2.812s9.772,3.845,9.3,6.231c-.167.9-.426,1.52-7.6-1.185a151.282,151.282,0,0,1-14.863-7.325v.076s-75.728-22.4-67.354-56.062c8.89-35.744,10.638-39.026,10.638-39.026l28.008,6.383S241.631,276.23,244.214,278.889Z" transform="translate(-183.517 -128.316)" fill="#ffbe9d"></path><path id="Path_8099" data-name="Path 8099" d="M219.54,250.659s11.991-38.829,42.947-39.239v4.726l-12.7,44.072Z" transform="translate(-181.061 -138.58)" fill="#263238"></path><path id="Path_8100" data-name="Path 8100" d="M255.954,231.17a5.6,5.6,0,0,1-.243,1.52c-.213.957-.547,2.325-1.049,4.027-.988,3.389-2.568,8.1-4.666,13.389l-.137.334-.334-.106-5.547-1.854c-6.7-2.264-12.766-4.346-17.143-5.9l-5.167-1.869a10.467,10.467,0,0,1-1.869-.79,9.816,9.816,0,0,1,1.96.5L227,242.051c4.422,1.413,10.517,3.419,17.234,5.669l5.532,1.869-.486.228c2.128-5.258,3.8-9.909,4.909-13.252l1.261-3.936A7.6,7.6,0,0,1,255.954,231.17Z" transform="translate(-180.925 -128.316)" fill="#455a64"></path><path id="Path_8101" data-name="Path 8101" d="M248.938,231.361a23.521,23.521,0,0,1,0-3.48,19.375,19.375,0,0,0-1.277-8.055,10.471,10.471,0,0,0-5.638-5.532,13.175,13.175,0,0,0-3.343-.578,2.759,2.759,0,0,1,.927-.228,6.838,6.838,0,0,1,2.6.274,10.38,10.38,0,0,1,6.185,5.745,17.493,17.493,0,0,1,1.109,8.4A11.776,11.776,0,0,1,248.938,231.361Z" transform="translate(-171.113 -137.519)" fill="#455a64"></path></g></svg>